<?xml version="1.0" standalone="no"?>
  <!DOCTYPE svg PUBLIC "-//W3C//DTD SVG 1.1//EN" "http://www.w3.org/Graphics/SVG/1.1/DTD/svg11.dtd" >
  <svg>
  <metadata>
  Created by font-carrier
  </metadata>
  <defs>
  <font id="GothamPro-Medium" horiz-adv-x="1228" vert-adv-y="1228" >
    <font-face
      
      font-family="Gotham Pro Medium"
      
      font-weight="400"
      
      font-stretch="normal"
      
      units-per-em="1000"
      
      ascent="730"
      
      descent="-160"
      
    />
      <missing-glyph />

      

      
      <glyph glyph-name="uni21" unicode="&#x21;" d="M118 221L80 665L80 700L222 700L222 665L185 221L118 221M85 0L85 137L218 137L218 0L85 0Z"  horiz-adv-x="302" vert-adv-y="1000"  />

      
      <glyph glyph-name="uni22" unicode="&#x22;" d="M279 401L303 700L440 700L440 695L342 401L279 401M60 401L83 700L220 700L220 695L123 401L60 401Z"  horiz-adv-x="487" vert-adv-y="1000"  />

      
      <glyph glyph-name="uni23" unicode="&#x23;" d="M101 0L129 161L39 161L39 265L147 265L176 439L76 439L76 543L194 543L221 700L328 700L301 543L465 543L491 700L598 700L571 543L660 543L660 439L553 439L524 265L624 265L624 161L506 161L478 0L371 0L399 161L235 161L208 0L101 0M253 265L417 265L447 439L283 439L253 265Z"  horiz-adv-x="700" vert-adv-y="1000"  />

      
      <glyph glyph-name="uni24" unicode="&#x24;" d="M288-98L288 2Q154 17 49 101L113 192Q203 119 289 106L289 302Q176 331 125.50 378.50Q75 426 75 509Q75 589 134 640.50Q193 692 288 700L288 758L369 758L369 698Q476 685 560 622L504 528Q439 577 368 592L368 402Q482 373 533.50 324Q585 275 585 194Q585 113 525.50 61Q466 9 369 1L369-98L288-98M289 423L289 599Q243 595 218 572Q193 549 193 514Q193 481 213.50 460Q234 439 289 423M368 102Q415 106 441 128.50Q467 151 467 189Q467 223 445.50 244.50Q424 266 368 283L368 102Z"  horiz-adv-x="642" vert-adv-y="1000"  />

      
      <glyph glyph-name="uni25" unicode="&#x25;" d="M212 350Q140 350 94 402Q48 454 48 529Q48 603 94.50 655.50Q141 708 214 708Q286 708 332 656Q378 604 378 529Q378 455 331.50 402.50Q285 350 212 350M119 0L631 700L730 700L218 0L119 0M635-8Q563-8 517 44Q471 96 471 171Q471 245 517.50 297.50Q564 350 637 350Q709 350 755 298Q801 246 801 171Q801 97 754.50 44.50Q708-8 635-8M214 427Q248 427 268.50 456.50Q289 486 289 529Q289 572 267 601.50Q245 631 212 631Q178 631 157.50 601.50Q137 572 137 529Q137 486 159 456.50Q181 427 214 427M637 69Q671 69 691.50 98.50Q712 128 712 171Q712 214 690 243.50Q668 273 635 273Q601 273 580.50 243.50Q560 214 560 171Q560 128 582 98.50Q604 69 637 69Z"  horiz-adv-x="849" vert-adv-y="1000"  />

      
      <glyph glyph-name="uni26" unicode="&#x26;" d="M575-14L482 81Q384-10 267-10Q168-10 103.50 45.50Q39 101 39 192Q39 324 188 388Q130 462 130 536Q130 609 185 660.50Q240 712 331 712Q413 712 465 663Q517 614 517 541Q517 417 363 359L483 237Q521 294 558 372L651 323Q603 227 556 163L666 51L575-14M298 425Q354 445 381 471.50Q408 498 408 536Q408 571 385.50 593Q363 615 328 615Q291 615 268 591Q245 567 245 529Q245 483 298 425M280 92Q348 92 412 153L256 312Q163 272 163 194Q163 150 196 121Q229 92 280 92Z"  horiz-adv-x="696" vert-adv-y="1000"  />

      
      <glyph glyph-name="uni27" unicode="&#x27;" d="M60 401L83 700L222 700L222 695L124 401L60 401Z"  horiz-adv-x="269" vert-adv-y="1000"  />

      
      <glyph glyph-name="uni28" unicode="&#x28;" d="M340-141Q63 11 63 287Q63 563 340 715L393 634Q285 563 234.50 480Q184 397 184 287Q184 177 234.50 94Q285 11 393-60L340-141Z"  horiz-adv-x="440" vert-adv-y="1000"  />

      
      <glyph glyph-name="uni29" unicode="&#x29;" d="M101-141L48-60Q156 11 206.50 94Q257 177 257 287Q257 397 206.50 480Q156 563 48 634L101 715Q378 562 378 287Q378 12 101-141Z"  horiz-adv-x="440" vert-adv-y="1000"  />

      
      <glyph glyph-name="uni2a" unicode="&#x2a;" d="M180 382L194 504L94 431L58 492L172 542L58 592L94 653L194 580L180 702L250 702L236 580L336 653L372 592L258 542L372 492L336 431L236 504L250 382L180 382Z"  horiz-adv-x="430" vert-adv-y="1000"  />

      
      <glyph glyph-name="uni2b" unicode="&#x2b;" d="M263 106L263 297L71 297L71 407L263 407L263 598L377 598L377 407L569 407L569 297L377 297L377 106L263 106Z"  horiz-adv-x="640" vert-adv-y="1000"  />

      
      <glyph glyph-name="uni2c" unicode="&#x2c;" d="M47-145L34-94Q120-77 120-11Q120-9 119.50-5.50Q119-2 119 0L68 0L68 137L201 137L201 21Q201-60 163-99.50Q125-139 47-145Z"  horiz-adv-x="269" vert-adv-y="1000"  />

      
      <glyph glyph-name="uni2d" unicode="&#x2d;" d="M56 247L56 366L352 366L352 247L56 247Z"  horiz-adv-x="408" vert-adv-y="1000"  />

      
      <glyph glyph-name="uni2e" unicode="&#x2e;" d="M68 0L68 137L201 137L201 0L68 0Z"  horiz-adv-x="269" vert-adv-y="1000"  />

      
      <glyph glyph-name="uni2f" unicode="&#x2f;" d="M-25-128L427 798L532 798L80-128L-25-128Z"  horiz-adv-x="521" vert-adv-y="1000"  />

      
      <glyph glyph-name="uni30" unicode="&#x30;" d="M361-12Q225-12 141 91.50Q57 195 57 350Q57 503 142.50 607.50Q228 712 363 712Q498 712 582.50 608Q667 504 667 350Q667 197 581.50 92.50Q496-12 361-12M233.50 171.50Q233.50 171.50 258.25 135.25Q283 99 363 99Q443 99 491.50 170.50Q540 242 540 350Q540 456 490 528.50Q440 601 361 601Q281 601 232.50 529.50Q184 458 184 350Q184 244 233.50 171.50Z"  horiz-adv-x="724" vert-adv-y="1000"  />

      
      <glyph glyph-name="uni31" unicode="&#x31;" d="M178 0L178 580L52 545L26 645L214 705L300 705L300 0L178 0Z"  horiz-adv-x="396" vert-adv-y="1000"  />

      
      <glyph glyph-name="uni32" unicode="&#x32;" d="M49 0L49 97L290 302Q364 364 392.50 404.50Q421 445 421 491Q421 541 389 570.50Q357 600 308 600Q262 600 225.50 575Q189 550 146 495L59 563Q113 639 170.50 674.50Q228 710 317 710Q420 710 484 652Q548 594 548 499Q548 458 538 425.50Q528 393 502.50 359.50Q477 326 447.50 298.50Q418 271 366 228L222 108L555 108L555 0L49 0Z"  horiz-adv-x="613" vert-adv-y="1000"  />

      
      <glyph glyph-name="uni33" unicode="&#x33;" d="M311-12Q144-12 43 111L129 191Q207 99 313 99Q366 99 400 128.50Q434 158 434 207Q434 258 390.50 286.50Q347 315 273 315L216 315L196 392L385 593L82 593L82 700L545 700L545 608L350 408Q442 395 499 346.50Q556 298 556 209Q556 112 487.50 50Q419-12 311-12Z"  horiz-adv-x="618" vert-adv-y="1000"  />

      
      <glyph glyph-name="uni34" unicode="&#x34;" d="M412 0L412 157L59 157L36 245L425 705L530 705L530 258L630 258L630 157L530 157L530 0L412 0M182 258L412 258L412 535L182 258Z"  horiz-adv-x="681" vert-adv-y="1000"  />

      
      <glyph glyph-name="uni35" unicode="&#x35;" d="M304-12Q157-12 47 95L123 184Q213 100 303 100Q366 100 404 133.50Q442 167 442 223Q442 276 401.50 307.50Q361 339 297 339Q234 339 168 308L94 357L114 700L532 700L532 591L220 591L209 427Q264 447 320 447Q427 447 495 390Q563 333 563 225Q563 118 491.50 53Q420-12 304-12Z"  horiz-adv-x="622" vert-adv-y="1000"  />

      
      <glyph glyph-name="uni36" unicode="&#x36;" d="M337-12Q216-12 143 61Q100 104 78.50 166.50Q57 229 57 331Q57 498 135.50 605Q214 712 357 712Q474 712 571 634L505 539Q426 600 353 600Q277 600 233.50 538.50Q190 477 185 378Q257 448 352 448Q458 448 527.50 388.50Q597 329 597 226Q597 123 522.50 55.50Q448-12 337-12M334 94Q398 94 436 130Q474 166 474 223Q474 276 434.50 310.50Q395 345 331 345Q267 345 228 309Q189 273 189 220Q189 166 229 130Q269 94 334 94Z"  horiz-adv-x="656" vert-adv-y="1000"  />

      
      <glyph glyph-name="uni37" unicode="&#x37;" d="M106 0L420 592L68 592L68 700L560 700L560 607L244 0L106 0Z"  horiz-adv-x="609" vert-adv-y="1000"  />

      
      <glyph glyph-name="uni38" unicode="&#x38;" d="M315-10Q199-10 123.50 46Q48 102 48 192Q48 310 174 363Q72 417 72 521Q72 602 141 656Q210 710 315 710Q420 710 489 656Q558 602 558 519Q558 417 456 363Q582 305 582 193Q582 101 507 45.50Q432-10 315-10M225.50 433Q225.50 433 243.25 418.50Q261 404 315 404Q369 404 404.50 433.50Q440 463 440 509Q440 550 405 578.50Q370 607 315 607Q260 607 225 578.50Q190 550 190 508Q190 462 225.50 433M208 123.50Q208 123.50 228 108.25Q248 93 315 93Q382 93 422 123.50Q462 154 462 200Q462 247 420 276.50Q378 306 315 306Q252 306 210 276.50Q168 247 168 198Q168 154 208 123.50Z"  horiz-adv-x="630" vert-adv-y="1000"  />

      
      <glyph glyph-name="uni39" unicode="&#x39;" d="M299-12Q176-12 75 72L142 166Q220 100 302 100Q378 100 423 160.50Q468 221 471 320Q409 246 307 246Q195 246 127 307Q59 368 59 470Q59 574 132 643Q205 712 320 712Q440 712 514 638Q599 553 599 369Q599 198 518.50 93Q438-12 299-12M221 384Q221 384 240.50 366.50Q260 349 325 349Q390 349 428.50 386Q467 423 467 477Q467 533 427 569.50Q387 606 321 606Q257 606 219.50 568.50Q182 531 182 474Q182 419 221 384Z"  horiz-adv-x="656" vert-adv-y="1000"  />

      
      <glyph glyph-name="uni3a" unicode="&#x3a;" d="M73 391L73 528L206 528L206 391L73 391M73 0L73 137L206 137L206 0L73 0Z"  horiz-adv-x="279" vert-adv-y="1000"  />

      
      <glyph glyph-name="uni3b" unicode="&#x3b;" d="M73 391L73 528L206 528L206 391L73 391M52-145L39-94Q125-77 125-11Q125-9 124.50-5.50Q124-2 124 0L73 0L73 137L206 137L206 21Q206-60 168-99.50Q130-139 52-145Z"  horiz-adv-x="279" vert-adv-y="1000"  />

      
      <glyph glyph-name="uni3c" unicode="&#x3c;" d="M547 77L70 298L70 406L547 627L547 512L190 353L547 193L547 77Z"  horiz-adv-x="640" vert-adv-y="1000"  />

      
      <glyph glyph-name="uni3d" unicode="&#x3d;" d="M86 421L86 533L554 533L554 421L86 421M86 171L86 283L554 283L554 171L86 171Z"  horiz-adv-x="640" vert-adv-y="1000"  />

      
      <glyph glyph-name="uni3e" unicode="&#x3e;" d="M93 77L93 192L450 351L93 511L93 627L570 406L570 298L93 77Z"  horiz-adv-x="640" vert-adv-y="1000"  />

      
      <glyph glyph-name="uni3f" unicode="&#x3f;" d="M207 221L187 383L192 388Q377 395 377 502Q377 545 346 571Q315 597 262 597Q173 597 99 518L24 598Q122 709 265 709Q371 709 435 653.50Q499 598 499 504Q499 415 444 366.50Q389 318 298 302L288 221L207 221M178 0L178 137L312 137L312 0L178 0Z"  horiz-adv-x="541" vert-adv-y="1000"  />

      
      <glyph glyph-name="uni40" unicode="&#x40;" d="M499-162Q309-162 181-34.50Q53 93 53 274Q53 454 180.50 583Q308 712 491 712Q581 712 662.50 679Q744 646 801.50 591.50Q859 537 893 465Q927 393 927 316Q927 196 871.50 131.50Q816 67 733 67Q629 67 585 137Q517 67 430 67Q353 67 301 119.50Q249 172 249 256Q249 360 318 433Q387 506 476 506Q569 506 617 432L629 492L726 477L682 225Q677 195 677 182Q677 149 698 130Q719 111 755 111Q811 111 849 164.50Q887 218 887 316Q887 458 772 566Q657 674 491 674Q322 674 207.50 557.50Q93 441 93 274Q93 106 208-9Q323-124 499-124Q630-124 746-57L764-87Q641-162 499-162M457 154Q512 154 553.50 200.50Q595 247 595 312Q595 360 565 390Q535 420 490 420Q434 420 392.50 374Q351 328 351 262Q351 211 380 182.50Q409 154 457 154Z"  horiz-adv-x="980" vert-adv-y="1000"  />

      
      <glyph glyph-name="uni41" unicode="&#x41;" d="M30 0L338 705L452 705L760 0L630 0L559 169L228 169L156 0L30 0M273 278L514 278L393 558L273 278Z"  horiz-adv-x="790" vert-adv-y="1000"  />

      
      <glyph glyph-name="uni42" unicode="&#x42;" d="M90 0L90 700L404 700Q525 700 587 638Q634 591 634 520Q634 416 534 364Q673 317 673 192Q673 100 603 50Q533 0 414 0L90 0M211 405L379 405Q440 405 475.50 429.50Q511 454 511 502Q511 544 479 567.50Q447 591 388 591L211 591L211 405M211 109L415 109Q479 109 514.50 134Q550 159 550 207Q550 301 406 301L211 301L211 109Z"  horiz-adv-x="722" vert-adv-y="1000"  />

      
      <glyph glyph-name="uni43" unicode="&#x43;" d="M415-12Q263-12 161 92.50Q59 197 59 350Q59 502 161 607Q263 712 420 712Q511 712 574.50 684Q638 656 694 603L615 512Q521 599 419 599Q319 599 253.50 527Q188 455 188 350Q188 246 254 173.50Q320 101 419 101Q479 101 525 123.50Q571 146 620 192L699 112Q640 50 574 19Q508-12 415-12Z"  horiz-adv-x="738" vert-adv-y="1000"  />

      
      <glyph glyph-name="uni44" unicode="&#x44;" d="M90 0L90 700L351 700Q515 700 619 600.50Q723 501 723 350Q723 200 618.50 100Q514 0 351 0L90 0M213 112L351 112Q460 112 527 178.50Q594 245 594 350Q594 454 527 521Q460 588 351 588L213 588L213 112Z"  horiz-adv-x="782" vert-adv-y="1000"  />

      
      <glyph glyph-name="uni45" unicode="&#x45;" d="M90 0L90 700L609 700L609 590L213 590L213 408L564 408L564 298L213 298L213 110L614 110L614 0L90 0Z"  horiz-adv-x="670" vert-adv-y="1000"  />

      
      <glyph glyph-name="uni46" unicode="&#x46;" d="M90 0L90 700L611 700L611 588L213 588L213 397L566 397L566 285L213 285L213 0L90 0Z"  horiz-adv-x="656" vert-adv-y="1000"  />

      
      <glyph glyph-name="uni47" unicode="&#x47;" d="M422-12Q260-12 159.50 90.50Q59 193 59 350Q59 500 161.50 606Q264 712 420 712Q508 712 570 688.50Q632 665 689 617L611 524Q567 562 522.50 580.50Q478 599 415 599Q319 599 253.50 526Q188 453 188 350Q188 241 254 170.50Q320 100 426 100Q524 100 595 153L595 284L416 284L416 391L714 391L714 97Q587-12 422-12Z"  horiz-adv-x="784" vert-adv-y="1000"  />

      
      <glyph glyph-name="uni48" unicode="&#x48;" d="M90 0L90 700L213 700L213 409L547 409L547 700L670 700L670 0L547 0L547 295L213 295L213 0L90 0Z"  horiz-adv-x="760" vert-adv-y="1000"  />

      
      <glyph glyph-name="uni49" unicode="&#x49;" d="M97 0L97 700L220 700L220 0L97 0Z"  horiz-adv-x="317" vert-adv-y="1000"  />

      
      <glyph glyph-name="uni4a" unicode="&#x4a;" d="M245-10Q104-10 21 103L102 186Q167 104 243 104Q294 104 324 138.50Q354 173 354 241L354 700L480 700L480 238Q480 117 415 52Q353-10 245-10Z"  horiz-adv-x="559" vert-adv-y="1000"  />

      
      <glyph glyph-name="uni4b" unicode="&#x4b;" d="M90 0L90 700L213 700L213 348L546 700L697 700L406 399L710 0L561 0L322 315L213 203L213 0L90 0Z"  horiz-adv-x="725" vert-adv-y="1000"  />

      
      <glyph glyph-name="uni4c" unicode="&#x4c;" d="M90 0L90 700L213 700L213 112L581 112L581 0L90 0Z"  horiz-adv-x="619" vert-adv-y="1000"  />

      
      <glyph glyph-name="uni4d" unicode="&#x4d;" d="M90 0L90 700L221 700L434 369L647 700L778 700L778 0L655 0L655 502L434 172L430 172L211 500L211 0L90 0Z"  horiz-adv-x="868" vert-adv-y="1000"  />

      
      <glyph glyph-name="uni4e" unicode="&#x4e;" d="M90 0L90 700L204 700L579 216L579 700L700 700L700 0L597 0L211 498L211 0L90 0Z"  horiz-adv-x="790" vert-adv-y="1000"  />

      
      <glyph glyph-name="uni4f" unicode="&#x4f;" d="M687 94Q687 94 635 41Q583-12 424-12Q265-12 162 93Q59 198 59 350Q59 500 163 606Q267 712 426 712Q585 712 688 607Q791 502 791 350Q791 200 687 94M255.50 173.50Q255.50 173.50 289.25 137.25Q323 101 426 101Q529 101 595.50 173Q662 245 662 350Q662 454 594.50 526.50Q527 599 424 599Q321 599 254.50 527Q188 455 188 350Q188 246 255.50 173.50Z"  horiz-adv-x="850" vert-adv-y="1000"  />

      
      <glyph glyph-name="uni50" unicode="&#x50;" d="M90 0L90 700L366 700Q488 700 560 636Q632 572 632 464Q632 351 552.50 288Q473 225 352 225L213 225L213 0L90 0M213 336L356 336Q425 336 466 371Q507 406 507 463Q507 523 466.50 555.50Q426 588 356 588L213 588L213 336Z"  horiz-adv-x="668" vert-adv-y="1000"  />

      
      <glyph glyph-name="uni51" unicode="&#x51;" d="M721-21L637 54Q544-12 424-12Q265-12 162 93Q59 198 59 350Q59 500 163 606Q267 712 426 712Q585 712 688 607Q791 502 791 350Q791 229 720 135L800 67L721-21M426 101Q493 101 546 135L426 237L505 327L626 217Q662 272 662 350Q662 454 594.50 526.50Q527 599 424 599Q321 599 254.50 527Q188 455 188 350Q188 246 255.50 173.50Q323 101 426 101Z"  horiz-adv-x="850" vert-adv-y="1000"  />

      
      <glyph glyph-name="uni52" unicode="&#x52;" d="M90 0L90 700L402 700Q524 700 593 639.50Q662 579 662 477Q662 394 617 340.50Q572 287 495 265L684 0L539 0L365 244L213 244L213 0L90 0M213 353L393 353Q459 353 498 385Q537 417 537 472Q537 528 499 558Q461 588 392 588L213 588L213 353Z"  horiz-adv-x="723" vert-adv-y="1000"  />

      
      <glyph glyph-name="uni53" unicode="&#x53;" d="M335-10Q168-10 43 102L117 190Q222 99 338 99Q395 99 428.50 123.50Q462 148 462 189Q462 228 430 251.50Q398 275 304 297Q182 326 126.50 370.50Q71 415 71 507Q71 597 138 653.50Q205 710 310 710Q454 710 564 622L498 529Q401 601 308 601Q255 601 224.50 577Q194 553 194 516Q194 475 227.50 452.50Q261 430 360 406Q476 378 530.50 331Q585 284 585 199Q585 102 516 46Q447-10 335-10Z"  horiz-adv-x="640" vert-adv-y="1000"  />

      
      <glyph glyph-name="uni54" unicode="&#x54;" d="M262 0L262 586L40 586L40 700L608 700L608 586L386 586L386 0L262 0Z"  horiz-adv-x="648" vert-adv-y="1000"  />

      
      <glyph glyph-name="uni55" unicode="&#x55;" d="M377-11Q238-11 158.50 68Q79 147 79 297L79 700L202 700L202 302Q202 206 249 154Q296 102 379 102Q462 102 508.50 152Q555 202 555 297L555 700L678 700L678 303Q678 150 598 69.50Q518-11 377-11Z"  horiz-adv-x="757" vert-adv-y="1000"  />

      
      <glyph glyph-name="uni56" unicode="&#x56;" d="M321-5L30 700L166 700L377 162L587 700L720 700L429-5L321-5Z"  horiz-adv-x="750" vert-adv-y="1000"  />

      
      <glyph glyph-name="uni57" unicode="&#x57;" d="M280-5L36 700L169 700L336 181L508 702L612 702L784 181L951 700L1080 700L836-5L730-5L558 498L386-5L280-5Z"  horiz-adv-x="1116" vert-adv-y="1000"  />

      
      <glyph glyph-name="uni58" unicode="&#x58;" d="M37 0L292 356L47 700L192 700L366 449L541 700L682 700L438 358L692 0L547 0L363 265L178 0L37 0Z"  horiz-adv-x="729" vert-adv-y="1000"  />

      
      <glyph glyph-name="uni59" unicode="&#x59;" d="M296 0L296 276L18 700L163 700L359 390L557 700L698 700L420 279L420 0L296 0Z"  horiz-adv-x="716" vert-adv-y="1000"  />

      
      <glyph glyph-name="uni5a" unicode="&#x5a;" d="M65 0L65 91L478 591L78 591L78 700L638 700L638 609L225 109L638 109L638 0L65 0Z"  horiz-adv-x="702" vert-adv-y="1000"  />

      
      <glyph glyph-name="uni5b" unicode="&#x5b;" d="M88-130L88 700L395 700L395 605L203 605L203-35L395-35L395-130L88-130Z"  horiz-adv-x="454" vert-adv-y="1000"  />

      
      <glyph glyph-name="uni5c" unicode="&#x5c;" d="M441-128L-11 798L94 798L546-128L441-128Z"  horiz-adv-x="521" vert-adv-y="1000"  />

      
      <glyph glyph-name="uni5d" unicode="&#x5d;" d="M59-130L59-35L251-35L251 605L59 605L59 700L367 700L367-130L59-130Z"  horiz-adv-x="454" vert-adv-y="1000"  />

      
      <glyph glyph-name="uni5e" unicode="&#x5e;" d="M56 493L207 701L293 701L444 493L351 493L249 625L147 493L56 493Z"  horiz-adv-x="500" vert-adv-y="1000"  />

      
      <glyph glyph-name="uni5f" unicode="&#x5f;" d="M-2-160L-2-66L602-66L602-160L-2-160Z"  horiz-adv-x="600" vert-adv-y="1000"  />

      
      <glyph glyph-name="uni60" unicode="&#x60;" d="M246 595L124 710L234 759L340 595L246 595Z"  horiz-adv-x="500" vert-adv-y="1000"  />

      
      <glyph glyph-name="uni61" unicode="&#x61;" d="M519 0L399 0L399 65Q335-11 228-11Q149-11 94.50 32.50Q40 76 40 154Q40 239 99 283Q158 327 254 327Q331 327 400 305L400 315Q400 370 366.50 399Q333 428 270 428Q198 428 119 395L86 492Q184 536 287 536Q402 536 460.50 478Q519 420 519 313L519 0M402 191L402 221Q348 242 281 242Q224 242 192 220Q160 198 160 158Q160 122 189 101Q218 80 262 80Q323 80 362.50 111Q402 142 402 191Z"  horiz-adv-x="587" vert-adv-y="1000"  />

      
      <glyph glyph-name="uni62" unicode="&#x62;" d="M376-11Q267-11 197 82L197 0L76 0L76 730L197 730L197 440Q267 539 376 539Q476 539 549 464.50Q622 390 622 263Q622 138 549 63.50Q476-11 376-11M348 94Q412 94 455.50 141Q499 188 499 265Q499 340 455 387Q411 434 348 434Q285 434 239.50 386Q194 338 194 263Q194 189 239.50 141.50Q285 94 348 94Z"  horiz-adv-x="670" vert-adv-y="1000"  />

      
      <glyph glyph-name="uni63" unicode="&#x63;" d="M320-12Q203-12 125 68Q47 148 47 263Q47 377 125.50 458Q204 539 321 539Q449 539 532 448L457 367Q394 433 320 433Q255 433 211.50 383.50Q168 334 168 263Q168 191 212.50 142Q257 93 326 93Q399 93 463 159L536 87Q493 39 442.50 13.50Q392-12 320-12Z"  horiz-adv-x="571" vert-adv-y="1000"  />

      
      <glyph glyph-name="uni64" unicode="&#x64;" d="M294-11Q195-11 122 63.50Q49 138 49 265Q49 391 121.50 465Q194 539 294 539Q402 539 474 446L474 730L595 730L595 0L474 0L474 88Q404-11 294-11M215.50 141Q215.50 141 237.75 117.50Q260 94 323 94Q386 94 431 142Q476 190 476 265Q476 339 431 386.50Q386 434 323 434Q259 434 215 387.50Q171 341 171 263Q171 188 215.50 141Z"  horiz-adv-x="670" vert-adv-y="1000"  />

      
      <glyph glyph-name="uni65" unicode="&#x65;" d="M318-12Q202-12 124.50 65Q47 142 47 264Q47 379 120 459Q193 539 305 539Q425 539 491.50 457.50Q558 376 558 255Q558 233 556 221L168 221Q178 158 219 122.50Q260 87 320 87Q398 87 463 150L534 87Q452-12 318-12M167 301L438 301Q432 362 397 401Q362 440 304 440Q249 440 212 401.50Q175 363 167 301Z"  horiz-adv-x="604" vert-adv-y="1000"  />

      
      <glyph glyph-name="uni66" unicode="&#x66;" d="M103 0L103 424L36 424L36 525L103 525L103 563Q103 651 146 694Q188 736 265 736Q316 736 363 722L363 620Q324 633 292 633Q222 633 222 553L222 524L362 524L362 424L224 424L224 0L103 0Z"  horiz-adv-x="376" vert-adv-y="1000"  />

      
      <glyph glyph-name="uni67" unicode="&#x67;" d="M311-162Q179-162 75-99L120-8Q210-64 308-64Q389-64 432-22.50Q475 19 475 98L475 139Q400 42 289 42Q191 42 120 110Q49 178 49 291Q49 403 120.50 471Q192 539 289 539Q399 539 474 449L474 528L595 528L595 108Q595-24 528-91Q457-162 311-162M321 144Q385 144 430.50 185.50Q476 227 476 291Q476 355 430.50 396Q385 437 321 437Q257 437 214 396.50Q171 356 171 290Q171 226 214.50 185Q258 144 321 144Z"  horiz-adv-x="670" vert-adv-y="1000"  />

      
      <glyph glyph-name="uni68" unicode="&#x68;" d="M76 0L76 730L197 730L197 446Q260 539 362 539Q450 539 500 484Q550 429 550 336L550 0L429 0L429 300Q429 362 399.50 395.50Q370 429 316 429Q263 429 230 394Q197 359 197 298L197 0L76 0Z"  horiz-adv-x="620" vert-adv-y="1000"  />

      
      <glyph glyph-name="uni69" unicode="&#x69;" d="M78 609L78 724L208 724L208 609L78 609M83 0L83 528L204 528L204 0L83 0Z"  horiz-adv-x="286" vert-adv-y="1000"  />

      
      <glyph glyph-name="uni6a" unicode="&#x6a;" d="M78 609L78 724L208 724L208 609L78 609M50-163Q24-163-8-158L-8-61Q10-64 26-64Q83-64 83 0L83 528L204 528L204-7Q204-163 50-163Z"  horiz-adv-x="286" vert-adv-y="1000"  />

      
      <glyph glyph-name="uni6b" unicode="&#x6b;" d="M76 0L76 730L197 730L197 294L416 528L563 528L353 313L570 0L430 0L271 228L197 151L197 0L76 0Z"  horiz-adv-x="582" vert-adv-y="1000"  />

      
      <glyph glyph-name="uni6c" unicode="&#x6c;" d="M83 0L83 730L204 730L204 0L83 0Z"  horiz-adv-x="286" vert-adv-y="1000"  />

      
      <glyph glyph-name="uni6d" unicode="&#x6d;" d="M76 0L76 528L197 528L197 448Q263 539 358 539Q468 539 515 446Q586 539 694 539Q781 539 830 486Q879 433 879 337L879 0L758 0L758 300Q758 363 730 396Q702 429 651 429Q600 429 569 394.50Q538 360 538 298L538 0L417 0L417 301Q417 362 389 395.50Q361 429 310 429Q259 429 228 393.50Q197 358 197 297L197 0L76 0Z"  horiz-adv-x="950" vert-adv-y="1000"  />

      
      <glyph glyph-name="uni6e" unicode="&#x6e;" d="M76 0L76 528L197 528L197 446Q260 539 362 539Q450 539 500 484Q550 429 550 336L550 0L429 0L429 300Q429 362 399.50 395.50Q370 429 316 429Q263 429 230 394Q197 359 197 298L197 0L76 0Z"  horiz-adv-x="620" vert-adv-y="1000"  />

      
      <glyph glyph-name="uni6f" unicode="&#x6f;" d="M327-12Q207-12 127 68Q47 148 47 263Q47 378 128 458.50Q209 539 329 539Q449 539 529.50 459Q610 379 610 263Q610 149 529 68.50Q448-12 327-12M329 93Q401 93 445 142Q489 191 489 263Q489 334 443 383.50Q397 433 327 433Q256 433 212 384Q168 335 168 263Q168 193 214 143Q260 93 329 93Z"  horiz-adv-x="657" vert-adv-y="1000"  />

      
      <glyph glyph-name="uni70" unicode="&#x70;" d="M76-160L76 528L197 528L197 440Q267 539 376 539Q476 539 549 464.50Q622 390 622 263Q622 138 549 63.50Q476-11 376-11Q267-11 197 82L197-160L76-160M348 94Q412 94 455.50 141Q499 188 499 265Q499 340 455 387Q411 434 348 434Q285 434 239.50 386Q194 338 194 263Q194 189 239.50 141.50Q285 94 348 94Z"  horiz-adv-x="670" vert-adv-y="1000"  />

      
      <glyph glyph-name="uni71" unicode="&#x71;" d="M474-160L474 88Q404-11 294-11Q195-11 122 63.50Q49 138 49 265Q49 391 121.50 465Q194 539 294 539Q402 539 474 446L474 528L595 528L595-160L474-160M215.50 141Q215.50 141 237.75 117.50Q260 94 323 94Q386 94 431 142Q476 190 476 265Q476 339 431 386.50Q386 434 323 434Q259 434 215 387.50Q171 341 171 263Q171 188 215.50 141Z"  horiz-adv-x="670" vert-adv-y="1000"  />

      
      <glyph glyph-name="uni72" unicode="&#x72;" d="M76 0L76 528L197 528L197 409Q253 544 384 538L384 410L377 410Q295 410 246 356.50Q197 303 197 201L197 0L76 0Z"  horiz-adv-x="413" vert-adv-y="1000"  />

      
      <glyph glyph-name="uni73" unicode="&#x73;" d="M257-10Q133-10 33 69L87 151Q173 86 260 86Q299 86 320.50 101.50Q342 117 342 145Q342 159 334.50 169.50Q327 180 308 189Q289 198 276 202Q263 206 233 215L224 218Q196 226 176.50 233.50Q157 241 133 254Q109 267 94 282.50Q79 298 69 322Q59 346 59 376Q59 449 112.50 493Q166 537 247 537Q350 537 441 477L393 391Q311 441 244 441Q209 441 189.50 426Q170 411 170 386Q170 369 187.50 355Q205 341 222.50 334.50Q240 328 279 315Q281 314 284 313Q287 312 289 312Q324 301 348 290.50Q372 280 398.50 262Q425 244 439 217.50Q453 191 453 156Q453 76 398 33Q343-10 257-10Z"  horiz-adv-x="500" vert-adv-y="1000"  />

      
      <glyph glyph-name="uni74" unicode="&#x74;" d="M253-9Q101-9 101 146L101 424L34 424L34 528L101 528L101 673L222 673L222 528L364 528L364 424L222 424L222 165Q222 99 287 99Q326 99 362 117L362 18Q314-9 253-9Z"  horiz-adv-x="410" vert-adv-y="1000"  />

      
      <glyph glyph-name="uni75" unicode="&#x75;" d="M258-11Q170-11 120 44Q70 99 70 192L70 528L191 528L191 228Q191 166 220.50 132.50Q250 99 304 99Q357 99 390 134Q423 169 423 230L423 528L544 528L544 0L423 0L423 82Q360-11 258-11Z"  horiz-adv-x="620" vert-adv-y="1000"  />

      
      <glyph glyph-name="uni76" unicode="&#x76;" d="M243-4L26 528L156 528L298 140L441 528L568 528L352-4L243-4Z"  horiz-adv-x="595" vert-adv-y="1000"  />

      
      <glyph glyph-name="uni77" unicode="&#x77;" d="M203-4L32 528L156 528L262 166L379 530L482 530L600 166L708 528L829 528L656-4L548-4L430 357L311-4L203-4Z"  horiz-adv-x="861" vert-adv-y="1000"  />

      
      <glyph glyph-name="uni78" unicode="&#x78;" d="M30 0L224 268L37 528L169 528L291 354L413 528L542 528L355 271L550 0L418 0L288 185L159 0L30 0Z"  horiz-adv-x="580" vert-adv-y="1000"  />

      
      <glyph glyph-name="uni79" unicode="&#x79;" d="M184-163Q118-163 59-131L100-41Q137-61 171-61Q197-61 214-47.50Q231-34 246 0L26 528L155 528L305 136L442 528L568 528L358-15Q326-96 287-129.50Q248-163 184-163Z"  horiz-adv-x="596" vert-adv-y="1000"  />

      
      <glyph glyph-name="uni7a" unicode="&#x7a;" d="M52 0L52 83L357 429L63 429L63 528L511 528L511 445L206 99L511 99L511 0L52 0Z"  horiz-adv-x="560" vert-adv-y="1000"  />

      
      <glyph glyph-name="uni7b" unicode="&#x7b;" d="M416-141Q286-117 237.50-70Q189-23 189 59Q189 66 190 94Q191 122 191 131Q191 190 165.50 215.50Q140 241 78 241L52 241L52 333L78 333Q140 333 165.50 358.50Q191 384 191 443Q191 452 190 480Q189 508 189 515Q189 597 237.50 644Q286 691 416 715L437 635Q351 611 326 583.50Q301 556 301 498Q301 488 302 461.50Q303 435 303 424Q303 368 277 336Q251 304 199 287Q252 270 277.50 238Q303 206 303 150Q303 139 302 112.50Q301 86 301 76Q301 18 326-9.50Q351-37 437-61L416-141Z"  horiz-adv-x="487" vert-adv-y="1000"  />

      
      <glyph glyph-name="uni7c" unicode="&#x7c;" d="M117-128L117 798L214 798L214-128L117-128Z"  horiz-adv-x="331" vert-adv-y="1000"  />

      
      <glyph glyph-name="uni7d" unicode="&#x7d;" d="M71-141L50-61Q136-37 161-9.50Q186 18 186 76Q186 86 185 112.50Q184 139 184 150Q184 206 210 238Q236 270 288 287Q235 304 209.50 336Q184 368 184 424Q184 435 185 461.50Q186 488 186 498Q186 556 161 583.50Q136 611 50 635L71 715Q201 691 249.50 644Q298 597 298 515Q298 508 297 480Q296 452 296 443Q296 384 321.50 358.50Q347 333 409 333L435 333L435 241L409 241Q347 241 321.50 215.50Q296 190 296 131Q296 122 297 94Q298 66 298 59Q298-23 249.50-70Q201-117 71-141Z"  horiz-adv-x="487" vert-adv-y="1000"  />

      
      <glyph glyph-name="uni7e" unicode="&#x7e;" d="M126 229L59 250Q76 314 101.50 344Q127 374 171 374Q201 374 250 354Q299 334 314 334Q335 334 346.50 345.50Q358 357 369 384L436 364Q419 300 393.50 269.50Q368 239 324 239Q294 239 245 259Q196 279 181 279Q160 279 148.50 267.50Q137 256 126 229Z"  horiz-adv-x="495" vert-adv-y="1000"  />

      
      <glyph glyph-name="unia1" unicode="&#xa1;" d="M85 563L85 700L218 700L218 563L85 563M80 0L80 35L118 479L185 479L222 35L222 0L80 0Z"  horiz-adv-x="302" vert-adv-y="1000"  />

      
      <glyph glyph-name="unia2" unicode="&#xa2;" d="M210-6L230 96Q151 124 101.50 195Q52 266 52 355Q52 470 130 550Q208 630 325 630L334 630L349 706L437 706L419 617Q484 597 537 539L464 461Q429 496 395 511L330 185Q403 186 468 250L538 181Q449 80 321 80L315 80L298-6L210-6M255 202L318 525Q255 524 212.50 475Q170 426 170 355Q170 305 192.50 264Q215 223 255 202Z"  horiz-adv-x="581" vert-adv-y="1000"  />

      
      <glyph glyph-name="unia3" unicode="&#xa3;" d="M63 0L63 78L142 102L142 278L63 278L63 382L142 382L142 474Q142 584 202.50 647Q263 710 372 710Q508 710 593 598L499 523Q470 560 441.50 578Q413 596 373 596Q324 596 295 562.50Q266 529 266 471L266 382L515 382L515 278L266 278L266 107L591 107L591 0L63 0Z"  horiz-adv-x="644" vert-adv-y="1000"  />

      
      <glyph glyph-name="unia4" unicode="&#xa4;" d="M434-12Q325-12 248.50 52.50Q172 117 143 225L52 225L52 310L129 310Q128 323 128 350Q128 381 130 395L52 395L52 480L146 480Q177 584 252 648Q327 712 430 712Q515 712 572.50 677.50Q630 643 674 580L581 511Q547 558 512 580Q477 602 427 602Q375 602 334.50 569.50Q294 537 273 480L488 480L488 395L254 395Q252 369 252 350Q252 336 254 310L488 310L488 225L272 225Q293 166 335 132Q377 98 435 98Q482 98 516 121Q550 144 588 193L676 129Q629 61 571.50 24.50Q514-12 434-12Z"  horiz-adv-x="720" vert-adv-y="1000"  />

      
      <glyph glyph-name="unia5" unicode="&#xa5;" d="M284 0L284 102L91 102L91 191L284 191L284 264L91 264L91 353L250 353L19 700L162 700L345 407L528 700L667 700L435 353L595 353L595 264L402 264L402 191L595 191L595 102L402 102L402 0L284 0Z"  horiz-adv-x="686" vert-adv-y="1000"  />

      
      <glyph glyph-name="unia6" unicode="&#xa6;" d="M53-89L53 161L167 161L167-89L53-89M53 411L53 661L167 661L167 411L53 411Z"  horiz-adv-x="222" vert-adv-y="1000"  />

      
      <glyph glyph-name="unia7" unicode="&#xa7;" d="M326-10Q185-10 95 85L164 153Q240 82 325 82Q406 82 406 133Q406 155 378 170.50Q350 186 274 203Q157 230 107.50 263Q58 296 58 351Q58 439 165 467Q110 502 110 564Q110 631 162.50 670.50Q215 710 306 710Q447 710 537 615L468 547Q392 618 307 618Q268 618 247 604.50Q226 591 226 567Q226 546 253 530.50Q280 515 358 497Q476 470 525 437.50Q574 405 574 349Q574 261 467 233Q522 200 522 136Q522 69 469.50 29.50Q417-10 326-10M388 278Q422 278 443.50 293.50Q465 309 465 334Q465 356 438 372Q411 388 348 404Q277 422 244 422Q210 422 188.50 406.50Q167 391 167 366Q167 344 194 328Q221 312 284 296Q355 278 388 278Z"  horiz-adv-x="632" vert-adv-y="1000"  />

      
      <glyph glyph-name="unia8" unicode="&#xa8;" d="M288 595L288 713L411 713L411 595L288 595M89 595L89 713L212 713L212 595L89 595Z"  horiz-adv-x="500" vert-adv-y="1000"  />

      
      <glyph glyph-name="unia9" unicode="&#xa9;" d="M671 94.50Q671 94.50 618 41.25Q565-12 414-12Q263-12 158 94Q53 200 53 350Q53 499 159 605.50Q265 712 416 712Q567 712 672 606Q777 500 777 350Q777 201 671 94.50M414 24Q552 24 645.50 119.50Q739 215 739 352Q739 487 646 581.50Q553 676 416 676Q278 676 184.50 580.50Q91 485 91 348Q91 213 184 118.50Q277 24 414 24M419 159Q337 159 282 215.50Q227 272 227 355Q227 437 282 494Q337 551 421 551Q509 551 570 492L523 438Q473 483 421 483Q370 483 336.50 445.50Q303 408 303 354Q303 302 337 264.50Q371 227 421 227Q475 227 525 274L573 227Q508 159 419 159Z"  horiz-adv-x="830" vert-adv-y="1000"  />

      
      <glyph glyph-name="uniaa" unicode="&#xaa;" d="M159 403Q115 403 85.50 427Q56 451 56 495Q56 540 89 564Q122 588 176 588Q212 588 252 577L252 582Q252 643 182 643Q147 643 99 624L80 678Q133 703 191 703Q319 703 319 581L319 409L251 409L251 443Q216 403 159 403M53 282L53 340L323 340L323 282L53 282M177 454Q209 454 230.50 471Q252 488 252 514L252 532Q221 543 189 543Q125 543 125 496Q125 477 139.50 465.50Q154 454 177 454Z"  horiz-adv-x="390" vert-adv-y="1000"  />

      
      <glyph glyph-name="uniab" unicode="&#xab;" d="M461 41L296 260L296 268L461 488L553 441L421 265L553 88L461 41M210 41L44 260L44 268L210 488L302 441L170 265L302 88L210 41Z"  horiz-adv-x="606" vert-adv-y="1000"  />

      
      <glyph glyph-name="uniac" unicode="&#xac;" d="M441 246L441 419L82 419L82 530L555 530L555 246L441 246Z"  horiz-adv-x="640" vert-adv-y="1000"  />

      
      <glyph glyph-name="uniad" unicode="&#xad;" d="M56 247L56 366L352 366L352 247L56 247Z"  horiz-adv-x="408" vert-adv-y="1000"  />

      
      <glyph glyph-name="uniae" unicode="&#xae;" d="M671 94.50Q671 94.50 618 41.25Q565-12 414-12Q263-12 158 94Q53 200 53 350Q53 499 159 605.50Q265 712 416 712Q567 712 672 606Q777 500 777 350Q777 201 671 94.50M414 24Q552 24 645.50 119.50Q739 215 739 352Q739 487 646 581.50Q553 676 416 676Q278 676 184.50 580.50Q91 485 91 348Q91 213 184 118.50Q277 24 414 24M269 171L269 550L438 550Q512 550 553 509Q584 480 584 428Q584 384 560.50 355Q537 326 496 314L598 171L512 171L418 302L341 302L341 171L269 171M341 365L435 365Q470 365 490 381Q510 397 510 426Q510 454 490 469.50Q470 485 435 485L341 485L341 365Z"  horiz-adv-x="830" vert-adv-y="1000"  />

      
      <glyph glyph-name="uniaf" unicode="&#xaf;" d="M79 600L79 689L421 689L421 600L79 600Z"  horiz-adv-x="500" vert-adv-y="1000"  />

      
      <glyph glyph-name="unib0" unicode="&#xb0;" d="M351.50 429.50Q351.50 429.50 326.25 405.25Q301 381 235 381Q169 381 119 429.50Q69 478 69 543L69 545Q69 610 119 658Q169 706 235 706Q301 706 351.50 658Q402 610 402 545L402 543Q402 478 351.50 429.50M168 475.50Q168 475.50 181.50 461.25Q195 447 235 447Q275 447 302.50 475.50Q330 504 330 543L330 545Q330 584 303 612Q276 640 235 640Q195 640 168 612Q141 584 141 545L141 543Q141 504 168 475.50Z"  horiz-adv-x="471" vert-adv-y="1000"  />

      
      <glyph glyph-name="unib1" unicode="&#xb1;" d="M75 16L75 120L565 120L565 16L75 16M263 176L263 329L69 329L69 438L263 438L263 590L377 590L377 438L569 438L569 329L377 329L377 176L263 176Z"  horiz-adv-x="640" vert-adv-y="1000"  />

      
      <glyph glyph-name="unib2" unicode="&#xb2;" d="M0 0L0 700L500 700L500 0L0 0M81 49L420 49L250 304L81 49M49 96L220 350L49 604L49 96M450 96L450 604L279 350L450 96M250 395L420 650L81 650L250 395Z"  horiz-adv-x="500" vert-adv-y="1000"  />

      
      <glyph glyph-name="unib3" unicode="&#xb3;" d="M0 0L0 700L500 700L500 0L0 0M81 49L420 49L250 304L81 49M49 96L220 350L49 604L49 96M450 96L450 604L279 350L450 96M250 395L420 650L81 650L250 395Z"  horiz-adv-x="500" vert-adv-y="1000"  />

      
      <glyph glyph-name="unib4" unicode="&#xb4;" d="M160 595L266 759L376 710L254 595L160 595Z"  horiz-adv-x="500" vert-adv-y="1000"  />

      
      <glyph glyph-name="unib5" unicode="&#xb5;" d="M75-160L75 528L196 528L196 226Q196 171 228 133Q260 95 309 95Q363 95 397 132.50Q431 170 431 231L431 528L552 528L552 0L431 0L431 83Q377-6 279-6Q221-6 196 30L196-160L75-160Z"  horiz-adv-x="628" vert-adv-y="1000"  />

      
      <glyph glyph-name="unib6" unicode="&#xb6;" d="M346 0L346 244L328 244Q200 244 120 303.50Q40 363 40 473Q40 578 114.50 639Q189 700 311 700L470 700L470 0L346 0Z"  horiz-adv-x="557" vert-adv-y="1000"  />

      
      <glyph glyph-name="unib7" unicode="&#xb7;" d="M68 238L68 375L201 375L201 238L68 238Z"  horiz-adv-x="269" vert-adv-y="1000"  />

      
      <glyph glyph-name="unib8" unicode="&#xb8;" d="M237-165L131-121L221 10L312 10L237-165Z"  horiz-adv-x="500" vert-adv-y="1000"  />

      
      <glyph glyph-name="unib9" unicode="&#xb9;" d="M0 0L0 700L500 700L500 0L0 0M81 49L420 49L250 304L81 49M49 96L220 350L49 604L49 96M450 96L450 604L279 350L450 96M250 395L420 650L81 650L250 395Z"  horiz-adv-x="500" vert-adv-y="1000"  />

      
      <glyph glyph-name="uniba" unicode="&#xba;" d="M194 402Q130 402 87 446Q44 490 44 554Q44 617 87.50 661Q131 705 196 705Q260 705 303 661Q346 617 346 553Q346 490 302.50 446Q259 402 194 402M51 282L51 340L339 340L339 282L51 282M196 464Q232 464 254 490Q276 516 276 554Q276 591 252.50 617Q229 643 194 643Q158 643 136 617Q114 591 114 553Q114 516 137.50 490Q161 464 196 464Z"  horiz-adv-x="390" vert-adv-y="1000"  />

      
      <glyph glyph-name="unibb" unicode="&#xbb;" d="M396 41L304 87L436 263L304 440L396 488L562 268L562 260L396 41M145 41L53 87L185 263L53 440L145 488L310 268L310 260L145 41Z"  horiz-adv-x="606" vert-adv-y="1000"  />

      
      <glyph glyph-name="unibc" unicode="&#xbc;" d="M0 0L0 700L500 700L500 0L0 0M81 49L420 49L250 304L81 49M49 96L220 350L49 604L49 96M450 96L450 604L279 350L450 96M250 395L420 650L81 650L250 395Z"  horiz-adv-x="500" vert-adv-y="1000"  />

      
      <glyph glyph-name="unibd" unicode="&#xbd;" d="M0 0L0 700L500 700L500 0L0 0M81 49L420 49L250 304L81 49M49 96L220 350L49 604L49 96M450 96L450 604L279 350L450 96M250 395L420 650L81 650L250 395Z"  horiz-adv-x="500" vert-adv-y="1000"  />

      
      <glyph glyph-name="unibe" unicode="&#xbe;" d="M0 0L0 700L500 700L500 0L0 0M81 49L420 49L250 304L81 49M49 96L220 350L49 604L49 96M450 96L450 604L279 350L450 96M250 395L420 650L81 650L250 395Z"  horiz-adv-x="500" vert-adv-y="1000"  />

      
      <glyph glyph-name="unibf" unicode="&#xbf;" d="M229 563L229 700L363 700L363 563L229 563M276-9Q170-9 106 46.50Q42 102 42 196Q42 285 97 333.50Q152 382 243 398L253 479L334 479L354 317L349 312Q164 305 164 198Q164 155 195 129Q226 103 279 103Q368 103 442 182L517 102Q419-9 276-9Z"  horiz-adv-x="541" vert-adv-y="1000"  />

      
      <glyph glyph-name="unic0" unicode="&#xc0;" d="M30 0L338 705L452 705L760 0L630 0L559 169L228 169L156 0L30 0M273 278L514 278L393 558L273 278M351 758L229 873L339 922L445 758L351 758Z"  horiz-adv-x="790" vert-adv-y="1000"  />

      
      <glyph glyph-name="unic1" unicode="&#xc1;" d="M30 0L338 705L452 705L760 0L630 0L559 169L228 169L156 0L30 0M273 278L514 278L393 558L273 278M345 758L451 922L561 873L439 758L345 758Z"  horiz-adv-x="790" vert-adv-y="1000"  />

      
      <glyph glyph-name="unic2" unicode="&#xc2;" d="M30 0L338 705L452 705L760 0L630 0L559 169L228 169L156 0L30 0M273 278L514 278L393 558L273 278M223 757L339 903L451 903L567 757L471 757L394 824L317 757L223 757Z"  horiz-adv-x="790" vert-adv-y="1000"  />

      
      <glyph glyph-name="unic3" unicode="&#xc3;" d="M30 0L338 705L452 705L760 0L630 0L559 169L228 169L156 0L30 0M273 278L514 278L393 558L273 278M273 748L206 768Q223 832 248.50 862.50Q274 893 318 893Q348 893 397 873Q446 853 462 853Q482 853 493.50 864Q505 875 517 903L584 882Q567 818 541.50 788Q516 758 472 758Q442 758 393 778Q344 798 328 798Q308 798 296.50 787Q285 776 273 748Z"  horiz-adv-x="790" vert-adv-y="1000"  />

      
      <glyph glyph-name="unic4" unicode="&#xc4;" d="M30 0L338 705L452 705L760 0L630 0L559 169L228 169L156 0L30 0M273 278L514 278L393 558L273 278M433 758L433 876L556 876L556 758L433 758M234 758L234 876L357 876L357 758L234 758Z"  horiz-adv-x="790" vert-adv-y="1000"  />

      
      <glyph glyph-name="unic5" unicode="&#xc5;" d="M30 0L328 684Q281 719 281 773Q281 817 315.50 849.50Q350 882 395 882Q440 882 474.50 849Q509 816 509 771Q509 719 462 684L760 0L630 0L559 169L228 169L156 0L30 0M395 710Q421 710 439 728.50Q457 747 457 773Q457 798 438.50 816Q420 834 395 834Q369 834 351 815.50Q333 797 333 771Q333 746 351.50 728Q370 710 395 710M273 278L514 278L393 558L273 278Z"  horiz-adv-x="790" vert-adv-y="1000"  />

      
      <glyph glyph-name="unic6" unicode="&#xc6;" d="M12 0L403 700L984 700L984 590L610 590L610 408L939 408L939 298L610 298L610 110L989 110L989 0L487 0L487 169L232 169L139 0L12 0M291 278L487 278L487 593L467 593L291 278Z"  horiz-adv-x="1045" vert-adv-y="1000"  />

      
      <glyph glyph-name="unic7" unicode="&#xc7;" d="M371-165L266-121L345-5Q219 18 139 117Q59 216 59 350Q59 502 161 607Q263 712 420 712Q511 712 574.50 684Q638 656 694 603L615 512Q521 599 419 599Q319 599 253.50 527Q188 455 188 350Q188 246 254 173.50Q320 101 419 101Q479 101 525 123.50Q571 146 620 192L699 112Q644 54 582.50 23.50Q521-7 437-11L371-165Z"  horiz-adv-x="738" vert-adv-y="1000"  />

      
      <glyph glyph-name="unic8" unicode="&#xc8;" d="M90 0L90 700L609 700L609 590L213 590L213 408L564 408L564 298L213 298L213 110L614 110L614 0L90 0M327 758L205 873L315 922L421 758L327 758Z"  horiz-adv-x="670" vert-adv-y="1000"  />

      
      <glyph glyph-name="unic9" unicode="&#xc9;" d="M90 0L90 700L609 700L609 590L213 590L213 408L564 408L564 298L213 298L213 110L614 110L614 0L90 0M277 758L383 922L493 873L371 758L277 758Z"  horiz-adv-x="670" vert-adv-y="1000"  />

      
      <glyph glyph-name="unica" unicode="&#xca;" d="M90 0L90 700L609 700L609 590L213 590L213 408L564 408L564 298L213 298L213 110L614 110L614 0L90 0M175 758L291 904L403 904L519 758L423 758L346 825L269 758L175 758Z"  horiz-adv-x="670" vert-adv-y="1000"  />

      
      <glyph glyph-name="unicb" unicode="&#xcb;" d="M90 0L90 700L609 700L609 590L213 590L213 408L564 408L564 298L213 298L213 110L614 110L614 0L90 0M385 758L385 876L508 876L508 758L385 758M186 758L186 876L309 876L309 758L186 758Z"  horiz-adv-x="670" vert-adv-y="1000"  />

      
      <glyph glyph-name="unicc" unicode="&#xcc;" d="M97 0L97 700L220 700L220 0L97 0M116 758L-6 873L104 922L210 758L116 758Z"  horiz-adv-x="317" vert-adv-y="1000"  />

      
      <glyph glyph-name="unicd" unicode="&#xcd;" d="M97 0L97 700L220 700L220 0L97 0M108 758L214 922L324 873L202 758L108 758Z"  horiz-adv-x="317" vert-adv-y="1000"  />

      
      <glyph glyph-name="unice" unicode="&#xce;" d="M97 0L97 700L220 700L220 0L97 0M-13 758L103 904L215 904L331 758L235 758L158 825L81 758L-13 758Z"  horiz-adv-x="317" vert-adv-y="1000"  />

      
      <glyph glyph-name="unicf" unicode="&#xcf;" d="M97 0L97 700L220 700L220 0L97 0M197 758L197 876L320 876L320 758L197 758M-2 758L-2 876L121 876L121 758L-2 758Z"  horiz-adv-x="317" vert-adv-y="1000"  />

      
      <glyph glyph-name="unid0" unicode="&#xd0;" d="M120 0L120 297L45 297L45 407L120 407L120 700L381 700Q545 700 649 600.50Q753 501 753 350Q753 200 648.50 100Q544 0 381 0L120 0M242 112L381 112Q490 112 557 178.50Q624 245 624 350Q624 454 557 521Q490 588 381 588L242 588L242 407L418 407L418 297L242 297L242 112Z"  horiz-adv-x="812" vert-adv-y="1000"  />

      
      <glyph glyph-name="unid1" unicode="&#xd1;" d="M90 0L90 700L204 700L579 216L579 700L700 700L700 0L597 0L211 498L211 0L90 0M273 748L206 768Q223 832 248.50 862.50Q274 893 318 893Q348 893 397 873Q446 853 462 853Q482 853 493.50 864Q505 875 517 903L584 882Q567 818 541.50 788Q516 758 472 758Q442 758 393 778Q344 798 328 798Q308 798 296.50 787Q285 776 273 748Z"  horiz-adv-x="790" vert-adv-y="1000"  />

      
      <glyph glyph-name="unid2" unicode="&#xd2;" d="M687 94Q687 94 635 41Q583-12 424-12Q265-12 162 93Q59 198 59 350Q59 500 163 606Q267 712 426 712Q585 712 688 607Q791 502 791 350Q791 200 687 94M255.50 173.50Q255.50 173.50 289.25 137.25Q323 101 426 101Q529 101 595.50 173Q662 245 662 350Q662 454 594.50 526.50Q527 599 424 599Q321 599 254.50 527Q188 455 188 350Q188 246 255.50 173.50M374 758L252 873L362 922L468 758L374 758Z"  horiz-adv-x="850" vert-adv-y="1000"  />

      
      <glyph glyph-name="unid3" unicode="&#xd3;" d="M687 94Q687 94 635 41Q583-12 424-12Q265-12 162 93Q59 198 59 350Q59 500 163 606Q267 712 426 712Q585 712 688 607Q791 502 791 350Q791 200 687 94M255.50 173.50Q255.50 173.50 289.25 137.25Q323 101 426 101Q529 101 595.50 173Q662 245 662 350Q662 454 594.50 526.50Q527 599 424 599Q321 599 254.50 527Q188 455 188 350Q188 246 255.50 173.50M382 758L488 922L598 873L476 758L382 758Z"  horiz-adv-x="850" vert-adv-y="1000"  />

      
      <glyph glyph-name="unid4" unicode="&#xd4;" d="M687 94Q687 94 635 41Q583-12 424-12Q265-12 162 93Q59 198 59 350Q59 500 163 606Q267 712 426 712Q585 712 688 607Q791 502 791 350Q791 200 687 94M255.50 173.50Q255.50 173.50 289.25 137.25Q323 101 426 101Q529 101 595.50 173Q662 245 662 350Q662 454 594.50 526.50Q527 599 424 599Q321 599 254.50 527Q188 455 188 350Q188 246 255.50 173.50M253 758L369 904L481 904L597 758L501 758L424 825L347 758L253 758Z"  horiz-adv-x="850" vert-adv-y="1000"  />

      
      <glyph glyph-name="unid5" unicode="&#xd5;" d="M687 94Q687 94 635 41Q583-12 424-12Q265-12 162 93Q59 198 59 350Q59 500 163 606Q267 712 426 712Q585 712 688 607Q791 502 791 350Q791 200 687 94M255.50 173.50Q255.50 173.50 289.25 137.25Q323 101 426 101Q529 101 595.50 173Q662 245 662 350Q662 454 594.50 526.50Q527 599 424 599Q321 599 254.50 527Q188 455 188 350Q188 246 255.50 173.50M303 748L236 768Q253 832 278.50 862.50Q304 893 348 893Q378 893 427 873Q476 853 492 853Q512 853 523.50 864Q535 875 547 903L614 882Q597 818 571.50 788Q546 758 502 758Q472 758 423 778Q374 798 358 798Q338 798 326.50 787Q315 776 303 748Z"  horiz-adv-x="850" vert-adv-y="1000"  />

      
      <glyph glyph-name="unid6" unicode="&#xd6;" d="M687 94Q687 94 635 41Q583-12 424-12Q265-12 162 93Q59 198 59 350Q59 500 163 606Q267 712 426 712Q585 712 688 607Q791 502 791 350Q791 200 687 94M255.50 173.50Q255.50 173.50 289.25 137.25Q323 101 426 101Q529 101 595.50 173Q662 245 662 350Q662 454 594.50 526.50Q527 599 424 599Q321 599 254.50 527Q188 455 188 350Q188 246 255.50 173.50M463 758L463 876L586 876L586 758L463 758M264 758L264 876L387 876L387 758L264 758Z"  horiz-adv-x="850" vert-adv-y="1000"  />

      
      <glyph glyph-name="unid7" unicode="&#xd7;" d="M145 91L66 169L240 344L66 518L145 597L319 422L493 597L572 518L397 344L572 169L493 91L319 265L145 91Z"  horiz-adv-x="640" vert-adv-y="1000"  />

      
      <glyph glyph-name="unid8" unicode="&#xd8;" d="M424-12Q310-12 220 48L172-5L51-5L150 106Q59 206 59 350Q59 500 163 606Q267 712 426 712Q540 712 630 652L678 705L799 705L700 593Q791 494 791 350Q791 200 687 94Q583-12 424-12M232 201L552 561Q496 601 424 601Q321 601 253.50 528.50Q186 456 186 350Q186 265 232 201M426 99Q529 99 596.50 171.50Q664 244 664 350Q664 435 618 499L298 139Q354 99 426 99Z"  horiz-adv-x="850" vert-adv-y="1000"  />

      
      <glyph glyph-name="unid9" unicode="&#xd9;" d="M377-11Q238-11 158.50 68Q79 147 79 297L79 700L202 700L202 302Q202 206 249 154Q296 102 379 102Q462 102 508.50 152Q555 202 555 297L555 700L678 700L678 303Q678 150 598 69.50Q518-11 377-11M341 753L219 868L329 917L435 753L341 753Z"  horiz-adv-x="757" vert-adv-y="1000"  />

      
      <glyph glyph-name="unida" unicode="&#xda;" d="M377-11Q238-11 158.50 68Q79 147 79 297L79 700L202 700L202 302Q202 206 249 154Q296 102 379 102Q462 102 508.50 152Q555 202 555 297L555 700L678 700L678 303Q678 150 598 69.50Q518-11 377-11M322 753L428 917L538 868L416 753L322 753Z"  horiz-adv-x="757" vert-adv-y="1000"  />

      
      <glyph glyph-name="unidb" unicode="&#xdb;" d="M377-11Q238-11 158.50 68Q79 147 79 297L79 700L202 700L202 302Q202 206 249 154Q296 102 379 102Q462 102 508.50 152Q555 202 555 297L555 700L678 700L678 303Q678 150 598 69.50Q518-11 377-11M207 757L323 903L435 903L551 757L455 757L378 824L301 757L207 757Z"  horiz-adv-x="757" vert-adv-y="1000"  />

      
      <glyph glyph-name="unidc" unicode="&#xdc;" d="M377-11Q238-11 158.50 68Q79 147 79 297L79 700L202 700L202 302Q202 206 249 154Q296 102 379 102Q462 102 508.50 152Q555 202 555 297L555 700L678 700L678 303Q678 150 598 69.50Q518-11 377-11M417 757L417 875L540 875L540 757L417 757M218 757L218 875L341 875L341 757L218 757Z"  horiz-adv-x="757" vert-adv-y="1000"  />

      
      <glyph glyph-name="unidd" unicode="&#xdd;" d="M296 0L296 276L18 700L163 700L359 390L557 700L698 700L420 279L420 0L296 0M311 753L417 917L527 868L405 753L311 753Z"  horiz-adv-x="716" vert-adv-y="1000"  />

      
      <glyph glyph-name="unide" unicode="&#xde;" d="M90 0L90 700L213 700L213 590L366 590Q488 590 560 526Q632 462 632 355Q632 241 552.50 178.50Q473 116 352 116L213 116L213 0L90 0M213 226L356 226Q425 226 466 261.50Q507 297 507 354Q507 414 466.50 446.50Q426 479 356 479L213 479L213 226Z"  horiz-adv-x="673" vert-adv-y="1000"  />

      
      <glyph glyph-name="unidf" unicode="&#xdf;" d="M296-2L296 91Q370 93 410 121Q450 149 450 201Q450 248 408.50 277Q367 306 296 315L296 397Q409 452 409 538Q409 581 381.50 607.50Q354 634 308 634Q258 634 227 599Q196 564 196 506L196 0L76 0L76 502Q76 611 140 674Q204 737 314 737Q413 737 471 683.50Q529 630 529 547Q529 437 419 376Q571 325 571 196Q571 103 501.50 50.50Q432-2 312-2L296-2Z"  horiz-adv-x="620" vert-adv-y="1000"  />

      
      <glyph glyph-name="unie0" unicode="&#xe0;" d="M519 0L399 0L399 65Q335-11 228-11Q149-11 94.50 32.50Q40 76 40 154Q40 239 99 283Q158 327 254 327Q331 327 400 305L400 315Q400 370 366.50 399Q333 428 270 428Q198 428 119 395L86 492Q184 536 287 536Q402 536 460.50 478Q519 420 519 313L519 0M402 191L402 221Q348 242 281 242Q224 242 192 220Q160 198 160 158Q160 122 189 101Q218 80 262 80Q323 80 362.50 111Q402 142 402 191M257 595L135 710L245 759L351 595L257 595Z"  horiz-adv-x="587" vert-adv-y="1000"  />

      
      <glyph glyph-name="unie1" unicode="&#xe1;" d="M519 0L399 0L399 65Q335-11 228-11Q149-11 94.50 32.50Q40 76 40 154Q40 239 99 283Q158 327 254 327Q331 327 400 305L400 315Q400 370 366.50 399Q333 428 270 428Q198 428 119 395L86 492Q184 536 287 536Q402 536 460.50 478Q519 420 519 313L519 0M402 191L402 221Q348 242 281 242Q224 242 192 220Q160 198 160 158Q160 122 189 101Q218 80 262 80Q323 80 362.50 111Q402 142 402 191M235 595L341 759L451 710L329 595L235 595Z"  horiz-adv-x="587" vert-adv-y="1000"  />

      
      <glyph glyph-name="unie2" unicode="&#xe2;" d="M519 0L399 0L399 65Q335-11 228-11Q149-11 94.50 32.50Q40 76 40 154Q40 239 99 283Q158 327 254 327Q331 327 400 305L400 315Q400 370 366.50 399Q333 428 270 428Q198 428 119 395L86 492Q184 536 287 536Q402 536 460.50 478Q519 420 519 313L519 0M402 191L402 221Q348 242 281 242Q224 242 192 220Q160 198 160 158Q160 122 189 101Q218 80 262 80Q323 80 362.50 111Q402 142 402 191M121 595L237 741L349 741L465 595L369 595L292 662L215 595L121 595Z"  horiz-adv-x="587" vert-adv-y="1000"  />

      
      <glyph glyph-name="unie3" unicode="&#xe3;" d="M519 0L399 0L399 65Q335-11 228-11Q149-11 94.50 32.50Q40 76 40 154Q40 239 99 283Q158 327 254 327Q331 327 400 305L400 315Q400 370 366.50 399Q333 428 270 428Q198 428 119 395L86 492Q184 536 287 536Q402 536 460.50 478Q519 420 519 313L519 0M402 191L402 221Q348 242 281 242Q224 242 192 220Q160 198 160 158Q160 122 189 101Q218 80 262 80Q323 80 362.50 111Q402 142 402 191M172 585L105 605Q122 669 147.50 699.50Q173 730 217 730Q247 730 296 710Q345 690 361 690Q382 690 393 701Q404 712 416 740L483 719Q466 655 440.50 625Q415 595 371 595Q341 595 292 615Q243 635 227 635Q206 635 195 624Q184 613 172 585Z"  horiz-adv-x="587" vert-adv-y="1000"  />

      
      <glyph glyph-name="unie4" unicode="&#xe4;" d="M519 0L399 0L399 65Q335-11 228-11Q149-11 94.50 32.50Q40 76 40 154Q40 239 99 283Q158 327 254 327Q331 327 400 305L400 315Q400 370 366.50 399Q333 428 270 428Q198 428 119 395L86 492Q184 536 287 536Q402 536 460.50 478Q519 420 519 313L519 0M402 191L402 221Q348 242 281 242Q224 242 192 220Q160 198 160 158Q160 122 189 101Q218 80 262 80Q323 80 362.50 111Q402 142 402 191M331 595L331 713L454 713L454 595L331 595M132 595L132 713L255 713L255 595L132 595Z"  horiz-adv-x="587" vert-adv-y="1000"  />

      
      <glyph glyph-name="unie5" unicode="&#xe5;" d="M519 0L399 0L399 65Q335-11 228-11Q149-11 94.50 32.50Q40 76 40 154Q40 239 99 283Q158 327 254 327Q331 327 400 305L400 315Q400 370 366.50 399Q333 428 270 428Q198 428 119 395L86 492Q184 536 287 536Q402 536 460.50 478Q519 420 519 313L519 0M402 191L402 221Q348 242 281 242Q224 242 192 220Q160 198 160 158Q160 122 189 101Q218 80 262 80Q323 80 362.50 111Q402 142 402 191M372.50 625.50Q372.50 625.50 355.25 609.25Q338 593 293 593Q248 593 213.50 626Q179 659 179 704Q179 748 213.50 780.50Q248 813 293 813Q338 813 372.50 780Q407 747 407 702Q407 658 372.50 625.50M293 641Q319 641 337 659.50Q355 678 355 704Q355 729 336.50 747Q318 765 293 765Q267 765 249 746.50Q231 728 231 702Q231 677 249.50 659Q268 641 293 641Z"  horiz-adv-x="587" vert-adv-y="1000"  />

      
      <glyph glyph-name="unie6" unicode="&#xe6;" d="M240-11Q154-11 97 32.50Q40 76 40 154Q40 239 98.50 283Q157 327 252 327Q328 327 397 305L397 315Q397 428 268 428Q198 428 119 395L86 492Q184 536 285 536Q420 536 470 449Q539 539 655 539Q773 539 839 457.50Q905 376 905 255Q905 233 904 221L516 221Q526 158 567 122.50Q608 87 667 87Q746 87 811 150L882 87Q798-12 665-12Q538-12 461 78Q354-11 240-11M514 301L786 301Q780 362 745 401Q710 440 652 440Q597 440 559.50 401.50Q522 363 514 301M260 80Q343 80 416 148Q401 186 397 224Q346 242 279 242Q223 242 191.50 220Q160 198 160 158Q160 122 188.50 101Q217 80 260 80Z"  horiz-adv-x="952" vert-adv-y="1000"  />

      
      <glyph glyph-name="unie7" unicode="&#xe7;" d="M276-165L170-121L250-3Q160 20 103.50 93.50Q47 167 47 263Q47 377 125.50 458Q204 539 321 539Q449 539 532 448L457 367Q394 433 320 433Q255 433 211.50 383.50Q168 334 168 263Q168 191 212.50 142Q257 93 326 93Q399 93 463 159L536 87Q495 42 449.50 17Q404-8 341-11L276-165Z"  horiz-adv-x="571" vert-adv-y="1000"  />

      
      <glyph glyph-name="unie8" unicode="&#xe8;" d="M318-12Q202-12 124.50 65Q47 142 47 264Q47 379 120 459Q193 539 305 539Q425 539 491.50 457.50Q558 376 558 255Q558 233 556 221L168 221Q178 158 219 122.50Q260 87 320 87Q398 87 463 150L534 87Q452-12 318-12M167 301L438 301Q432 362 397 401Q362 440 304 440Q249 440 212 401.50Q175 363 167 301M261 595L139 710L249 759L355 595L261 595Z"  horiz-adv-x="604" vert-adv-y="1000"  />

      
      <glyph glyph-name="unie9" unicode="&#xe9;" d="M318-12Q202-12 124.50 65Q47 142 47 264Q47 379 120 459Q193 539 305 539Q425 539 491.50 457.50Q558 376 558 255Q558 233 556 221L168 221Q178 158 219 122.50Q260 87 320 87Q398 87 463 150L534 87Q452-12 318-12M167 301L438 301Q432 362 397 401Q362 440 304 440Q249 440 212 401.50Q175 363 167 301M249 595L355 759L465 710L343 595L249 595Z"  horiz-adv-x="604" vert-adv-y="1000"  />

      
      <glyph glyph-name="uniea" unicode="&#xea;" d="M318-12Q202-12 124.50 65Q47 142 47 264Q47 379 120 459Q193 539 305 539Q425 539 491.50 457.50Q558 376 558 255Q558 233 556 221L168 221Q178 158 219 122.50Q260 87 320 87Q398 87 463 150L534 87Q452-12 318-12M167 301L438 301Q432 362 397 401Q362 440 304 440Q249 440 212 401.50Q175 363 167 301M131 595L247 741L359 741L475 595L379 595L302 662L225 595L131 595Z"  horiz-adv-x="604" vert-adv-y="1000"  />

      
      <glyph glyph-name="unieb" unicode="&#xeb;" d="M318-12Q202-12 124.50 65Q47 142 47 264Q47 379 120 459Q193 539 305 539Q425 539 491.50 457.50Q558 376 558 255Q558 233 556 221L168 221Q178 158 219 122.50Q260 87 320 87Q398 87 463 150L534 87Q452-12 318-12M167 301L438 301Q432 362 397 401Q362 440 304 440Q249 440 212 401.50Q175 363 167 301M341 595L341 713L464 713L464 595L341 595M142 595L142 713L265 713L265 595L142 595Z"  horiz-adv-x="604" vert-adv-y="1000"  />

      
      <glyph glyph-name="uniec" unicode="&#xec;" d="M83 0L83 528L204 528L204 0L83 0M101 595L-21 710L89 759L195 595L101 595Z"  horiz-adv-x="286" vert-adv-y="1000"  />

      
      <glyph glyph-name="unied" unicode="&#xed;" d="M83 0L83 528L204 528L204 0L83 0M91 595L197 759L307 710L185 595L91 595Z"  horiz-adv-x="286" vert-adv-y="1000"  />

      
      <glyph glyph-name="uniee" unicode="&#xee;" d="M83 0L83 528L204 528L204 0L83 0M-29 595L87 741L199 741L315 595L219 595L142 662L65 595L-29 595Z"  horiz-adv-x="286" vert-adv-y="1000"  />

      
      <glyph glyph-name="unief" unicode="&#xef;" d="M83 0L83 528L204 528L204 0L83 0M181 595L181 713L304 713L304 595L181 595M-18 595L-18 713L105 713L105 595L-18 595Z"  horiz-adv-x="286" vert-adv-y="1000"  />

      
      <glyph glyph-name="unif0" unicode="&#xf0;" d="M316-12Q201-12 124 64Q47 140 47 250Q47 354 113.50 420Q180 486 279 486Q350 486 418 445L313 588L194 535L146 598L267 651L209 730L348 730L372 695L471 738L518 675L416 631L505 502Q551 436 572 379.50Q593 323 593 257Q593 145 517.50 66.50Q442-12 316-12M321 91Q389 91 431.50 136Q474 181 474 247Q474 310 430 353.50Q386 397 317 397Q249 397 207.50 354Q166 311 166 245Q166 181 210 136Q254 91 321 91Z"  horiz-adv-x="642" vert-adv-y="1000"  />

      
      <glyph glyph-name="unif1" unicode="&#xf1;" d="M76 0L76 528L197 528L197 446Q260 539 362 539Q450 539 500 484Q550 429 550 336L550 0L429 0L429 300Q429 362 399.50 395.50Q370 429 316 429Q263 429 230 394Q197 359 197 298L197 0L76 0M192 585L125 605Q142 669 167.50 699.50Q193 730 237 730Q267 730 316 710Q365 690 381 690Q402 690 413 701Q424 712 436 740L503 719Q486 655 460.50 625Q435 595 391 595Q361 595 312 615Q263 635 247 635Q226 635 215 624Q204 613 192 585Z"  horiz-adv-x="620" vert-adv-y="1000"  />

      
      <glyph glyph-name="unif2" unicode="&#xf2;" d="M327-12Q207-12 127 68Q47 148 47 263Q47 378 128 458.50Q209 539 329 539Q449 539 529.50 459Q610 379 610 263Q610 149 529 68.50Q448-12 327-12M329 93Q401 93 445 142Q489 191 489 263Q489 334 443 383.50Q397 433 327 433Q256 433 212 384Q168 335 168 263Q168 193 214 143Q260 93 329 93M281 595L159 710L269 759L375 595L281 595Z"  horiz-adv-x="657" vert-adv-y="1000"  />

      
      <glyph glyph-name="unif3" unicode="&#xf3;" d="M327-12Q207-12 127 68Q47 148 47 263Q47 378 128 458.50Q209 539 329 539Q449 539 529.50 459Q610 379 610 263Q610 149 529 68.50Q448-12 327-12M329 93Q401 93 445 142Q489 191 489 263Q489 334 443 383.50Q397 433 327 433Q256 433 212 384Q168 335 168 263Q168 193 214 143Q260 93 329 93M281 595L387 759L497 710L375 595L281 595Z"  horiz-adv-x="657" vert-adv-y="1000"  />

      
      <glyph glyph-name="unif4" unicode="&#xf4;" d="M327-12Q207-12 127 68Q47 148 47 263Q47 378 128 458.50Q209 539 329 539Q449 539 529.50 459Q610 379 610 263Q610 149 529 68.50Q448-12 327-12M329 93Q401 93 445 142Q489 191 489 263Q489 334 443 383.50Q397 433 327 433Q256 433 212 384Q168 335 168 263Q168 193 214 143Q260 93 329 93M156 595L272 741L384 741L500 595L404 595L327 662L250 595L156 595Z"  horiz-adv-x="657" vert-adv-y="1000"  />

      
      <glyph glyph-name="unif5" unicode="&#xf5;" d="M327-12Q207-12 127 68Q47 148 47 263Q47 378 128 458.50Q209 539 329 539Q449 539 529.50 459Q610 379 610 263Q610 149 529 68.50Q448-12 327-12M329 93Q401 93 445 142Q489 191 489 263Q489 334 443 383.50Q397 433 327 433Q256 433 212 384Q168 335 168 263Q168 193 214 143Q260 93 329 93M206 585L139 605Q156 669 181.50 699.50Q207 730 251 730Q281 730 330 710Q379 690 395 690Q416 690 427 701Q438 712 450 740L517 719Q500 655 474.50 625Q449 595 405 595Q375 595 326 615Q277 635 261 635Q240 635 229 624Q218 613 206 585Z"  horiz-adv-x="657" vert-adv-y="1000"  />

      
      <glyph glyph-name="unif6" unicode="&#xf6;" d="M327-12Q207-12 127 68Q47 148 47 263Q47 378 128 458.50Q209 539 329 539Q449 539 529.50 459Q610 379 610 263Q610 149 529 68.50Q448-12 327-12M329 93Q401 93 445 142Q489 191 489 263Q489 334 443 383.50Q397 433 327 433Q256 433 212 384Q168 335 168 263Q168 193 214 143Q260 93 329 93M366 595L366 713L489 713L489 595L366 595M167 595L167 713L290 713L290 595L167 595Z"  horiz-adv-x="657" vert-adv-y="1000"  />

      
      <glyph glyph-name="unif7" unicode="&#xf7;" d="M83 299L83 410L556 410L556 299L83 299M256 497L256 628L380 628L380 497L256 497M256 80L256 211L380 211L380 80L256 80Z"  horiz-adv-x="640" vert-adv-y="1000"  />

      
      <glyph glyph-name="unif8" unicode="&#xf8;" d="M327-12Q244-12 176 31L142-5L32-5L112 84Q47 160 47 263Q47 378 128 458.50Q209 539 329 539Q413 539 480 496L515 534L625 534Q574 477 544 443Q610 369 610 263Q610 149 529 68.50Q448-12 327-12M190 172L408 412Q371 436 327 436Q254 436 209.50 386Q165 336 165 263Q165 213 190 172M329 91Q402 91 447 140.50Q492 190 492 263Q492 312 467 355L248 114Q283 91 329 91Z"  horiz-adv-x="657" vert-adv-y="1000"  />

      
      <glyph glyph-name="unif9" unicode="&#xf9;" d="M258-11Q170-11 120 44Q70 99 70 192L70 528L191 528L191 228Q191 166 220.50 132.50Q250 99 304 99Q357 99 390 134Q423 169 423 230L423 528L544 528L544 0L423 0L423 82Q360-11 258-11M275 594L153 709L263 758L369 594L275 594Z"  horiz-adv-x="620" vert-adv-y="1000"  />

      
      <glyph glyph-name="unifa" unicode="&#xfa;" d="M258-11Q170-11 120 44Q70 99 70 192L70 528L191 528L191 228Q191 166 220.50 132.50Q250 99 304 99Q357 99 390 134Q423 169 423 230L423 528L544 528L544 0L423 0L423 82Q360-11 258-11M249 594L355 758L465 709L343 594L249 594Z"  horiz-adv-x="620" vert-adv-y="1000"  />

      
      <glyph glyph-name="unifb" unicode="&#xfb;" d="M258-11Q170-11 120 44Q70 99 70 192L70 528L191 528L191 228Q191 166 220.50 132.50Q250 99 304 99Q357 99 390 134Q423 169 423 230L423 528L544 528L544 0L423 0L423 82Q360-11 258-11M138 595L254 741L366 741L482 595L386 595L309 662L232 595L138 595Z"  horiz-adv-x="620" vert-adv-y="1000"  />

      
      <glyph glyph-name="unifc" unicode="&#xfc;" d="M258-11Q170-11 120 44Q70 99 70 192L70 528L191 528L191 228Q191 166 220.50 132.50Q250 99 304 99Q357 99 390 134Q423 169 423 230L423 528L544 528L544 0L423 0L423 82Q360-11 258-11M348 595L348 713L471 713L471 595L348 595M149 595L149 713L272 713L272 595L149 595Z"  horiz-adv-x="620" vert-adv-y="1000"  />

      
      <glyph glyph-name="unifd" unicode="&#xfd;" d="M184-163Q118-163 59-131L100-41Q137-61 171-61Q197-61 214-47.50Q231-34 246 0L26 528L155 528L305 136L442 528L568 528L358-15Q326-96 287-129.50Q248-163 184-163M244 594L350 758L460 709L338 594L244 594Z"  horiz-adv-x="596" vert-adv-y="1000"  />

      
      <glyph glyph-name="unife" unicode="&#xfe;" d="M76-160L76 730L197 730L197 440Q267 539 376 539Q476 539 549 464.50Q622 390 622 263Q622 138 549 63.50Q476-11 376-11Q267-11 197 82L197-160L76-160M348 94Q412 94 455.50 141Q499 188 499 265Q499 340 455 387Q411 434 348 434Q285 434 239.50 386Q194 338 194 263Q194 189 239.50 141.50Q285 94 348 94Z"  horiz-adv-x="670" vert-adv-y="1000"  />

      
      <glyph glyph-name="uniff" unicode="&#xff;" d="M184-163Q118-163 59-131L100-41Q137-61 171-61Q197-61 214-47.50Q231-34 246 0L26 528L155 528L305 136L442 528L568 528L358-15Q326-96 287-129.50Q248-163 184-163M336 595L336 713L459 713L459 595L336 595M137 595L137 713L260 713L260 595L137 595Z"  horiz-adv-x="596" vert-adv-y="1000"  />

      
      <glyph glyph-name="uni0131" unicode="&#x0131;" d="M83 0L83 528L204 528L204 0L83 0Z"  horiz-adv-x="286" vert-adv-y="1000"  />

      
      <glyph glyph-name="uni0141" unicode="&#x0141;" d="M120 0L120 278L45 256L45 370L120 393L120 700L242 700L242 430L444 490L444 376L242 315L242 112L611 112L611 0L120 0Z"  horiz-adv-x="649" vert-adv-y="1000"  />

      
      <glyph glyph-name="uni0142" unicode="&#x0142;" d="M113 0L113 297L37 274L37 389L113 412L113 730L233 730L233 447L309 470L309 355L233 332L233 0L113 0Z"  horiz-adv-x="346" vert-adv-y="1000"  />

      
      <glyph glyph-name="uni0152" unicode="&#x0152;" d="M431 0Q267 0 163 99.50Q59 199 59 350Q59 500 163.50 600Q268 700 431 700L1037 700L1037 590L663 590L663 408L992 408L992 298L663 298L663 110L1042 110L1042 0L431 0M431 112L540 112L540 588L431 588Q322 588 255 521.50Q188 455 188 350Q188 246 255 179Q322 112 431 112Z"  horiz-adv-x="1098" vert-adv-y="1000"  />

      
      <glyph glyph-name="uni0153" unicode="&#x0153;" d="M321-12Q207-12 127 68.50Q47 149 47 263Q47 377 128 458Q209 539 326 539Q392 539 447 509.50Q502 480 537 430Q571 481 624 510Q677 539 741 539Q861 539 927 457.50Q993 376 993 255Q993 241 991 221L603 221Q613 158 654.50 122.50Q696 87 755 87Q834 87 899 150L970 87Q886-12 754-12Q686-12 629 17.50Q572 47 536 99Q501 48 444.50 18Q388-12 321-12M602 301L874 301Q867 363 832.50 401.50Q798 440 740 440Q685 440 647.50 401.50Q610 363 602 301M326 93Q396 93 439 142Q482 191 482 263Q482 334 437 383.50Q392 433 324 433Q255 433 211.50 383.50Q168 334 168 263Q168 193 213 143Q258 93 326 93Z"  horiz-adv-x="1040" vert-adv-y="1000"  />

      
      <glyph glyph-name="uni0160" unicode="&#x0160;" d="M335-10Q168-10 43 102L117 190Q222 99 338 99Q395 99 428.50 123.50Q462 148 462 189Q462 228 430 251.50Q398 275 304 297Q182 326 126.50 370.50Q71 415 71 507Q71 597 138 653.50Q205 710 310 710Q454 710 564 622L498 529Q401 601 308 601Q255 601 224.50 577Q194 553 194 516Q194 475 227.50 452.50Q261 430 360 406Q476 378 530.50 331Q585 284 585 199Q585 102 516 46Q447-10 335-10M264 758L148 904L244 904L321 838L398 904L492 904L376 758L264 758Z"  horiz-adv-x="640" vert-adv-y="1000"  />

      
      <glyph glyph-name="uni0161" unicode="&#x0161;" d="M257-10Q133-10 33 69L87 151Q173 86 260 86Q299 86 320.50 101.50Q342 117 342 145Q342 159 334.50 169.50Q327 180 308 189Q289 198 276 202Q263 206 233 215L224 218Q196 226 176.50 233.50Q157 241 133 254Q109 267 94 282.50Q79 298 69 322Q59 346 59 376Q59 449 112.50 493Q166 537 247 537Q350 537 441 477L393 391Q311 441 244 441Q209 441 189.50 426Q170 411 170 386Q170 369 187.50 355Q205 341 222.50 334.50Q240 328 279 315Q281 314 284 313Q287 312 289 312Q324 301 348 290.50Q372 280 398.50 262Q425 244 439 217.50Q453 191 453 156Q453 76 398 33Q343-10 257-10M198 595L82 741L178 741L255 675L332 741L426 741L310 595L198 595Z"  horiz-adv-x="500" vert-adv-y="1000"  />

      
      <glyph glyph-name="uni0178" unicode="&#x0178;" d="M296 0L296 276L18 700L163 700L359 390L557 700L698 700L420 279L420 0L296 0M396 757L396 875L519 875L519 757L396 757M197 757L197 875L320 875L320 757L197 757Z"  horiz-adv-x="716" vert-adv-y="1000"  />

      
      <glyph glyph-name="uni017D" unicode="&#x017D;" d="M65 0L65 91L478 591L78 591L78 700L638 700L638 609L225 109L638 109L638 0L65 0M299 758L183 904L279 904L356 838L433 904L527 904L411 758L299 758Z"  horiz-adv-x="702" vert-adv-y="1000"  />

      
      <glyph glyph-name="uni017E" unicode="&#x017E;" d="M52 0L52 83L357 429L63 429L63 528L511 528L511 445L206 99L511 99L511 0L52 0M232 595L116 741L212 741L289 675L366 741L460 741L344 595L232 595Z"  horiz-adv-x="560" vert-adv-y="1000"  />

      
      <glyph glyph-name="uni0192" unicode="&#x0192;" d="M97-5Q61-5 41 0L41 99Q58 95 81 95Q113 95 130 111Q147 127 154 163L189 356L109 356L109 457L206 457L224 550Q239 628 279.50 666.50Q320 705 399 705Q454 705 491 693L491 593Q451 603 422 603Q387 603 367.50 584.50Q348 566 341 525L329 457L456 457L456 356L311 356L273 145Q259 66 216.50 30.50Q174-5 97-5Z"  horiz-adv-x="527" vert-adv-y="1000"  />

      
      <glyph glyph-name="uni02C6" unicode="&#x02C6;" d="M78 595L194 741L306 741L422 595L326 595L249 662L172 595L78 595Z"  horiz-adv-x="500" vert-adv-y="1000"  />

      
      <glyph glyph-name="uni02C7" unicode="&#x02C7;" d="M194 595L78 741L174 741L251 675L328 741L422 741L306 595L194 595Z"  horiz-adv-x="500" vert-adv-y="1000"  />

      
      <glyph glyph-name="uni02D8" unicode="&#x02D8;" d="M369.50 632Q369.50 632 346.25 612.50Q323 593 250 593Q177 593 130.50 632Q84 671 79 741L162 741Q182 678 250 678Q318 678 338 741L421 741Q416 671 369.50 632Z"  horiz-adv-x="500" vert-adv-y="1000"  />

      
      <glyph glyph-name="uni02D9" unicode="&#x02D9;" d="M187 595L187 714L313 714L313 595L187 595Z"  horiz-adv-x="500" vert-adv-y="1000"  />

      
      <glyph glyph-name="uni02DA" unicode="&#x02DA;" d="M329.50 625.50Q329.50 625.50 312.25 609.25Q295 593 250 593Q205 593 170.50 626Q136 659 136 704Q136 748 170.50 780.50Q205 813 250 813Q295 813 329.50 780Q364 747 364 702Q364 658 329.50 625.50M250 641Q276 641 294 659.50Q312 678 312 704Q312 729 293.50 747Q275 765 250 765Q224 765 206 746.50Q188 728 188 702Q188 677 206.50 659Q225 641 250 641Z"  horiz-adv-x="500" vert-adv-y="1000"  />

      
      <glyph glyph-name="uni02DB" unicode="&#x02DB;" d="M366-164Q275-170 225.50-141Q176-112 176-56Q176-26 191 10L277 10Q271-12 271-34Q271-102 366-108L366-164Z"  horiz-adv-x="500" vert-adv-y="1000"  />

      
      <glyph glyph-name="uni02DC" unicode="&#x02DC;" d="M128 585L61 605Q78 669 103.50 699.50Q129 730 173 730Q203 730 252 710Q301 690 317 690Q338 690 349 701Q360 712 372 740L439 719Q422 655 396.50 625Q371 595 327 595Q297 595 248 615Q199 635 183 635Q162 635 151 624Q140 613 128 585Z"  horiz-adv-x="500" vert-adv-y="1000"  />

      
      <glyph glyph-name="uni02DD" unicode="&#x02DD;" d="M238 595L344 759L450 710L328 595L238 595M56 595L160 759L266 710L146 595L56 595Z"  horiz-adv-x="500" vert-adv-y="1000"  />

      
      <glyph glyph-name="uni03A9" unicode="&#x03A9;" d="M68 0L68 100L250 100L250 148Q164 171 116 243.50Q68 316 68 408Q68 543 162.50 626.50Q257 710 395 710Q530 710 623 627Q716 544 716 409Q716 317 668.50 243.50Q621 170 535 148L535 100L716 100L716 0L443 0L443 200Q517 214 555.50 268Q594 322 594 399Q594 487 538 546Q482 605 394 605Q305 605 248.50 545Q192 485 192 397Q192 321 231 266.50Q270 212 342 200L342 0L68 0Z"  horiz-adv-x="786" vert-adv-y="1000"  />

      
      <glyph glyph-name="uni03C0" unicode="&#x03C0;" d="M0 0L0 700L500 700L500 0L0 0M81 49L420 49L250 304L81 49M49 96L220 350L49 604L49 96M450 96L450 604L279 350L450 96M250 395L420 650L81 650L250 395Z"  horiz-adv-x="500" vert-adv-y="1000"  />

      
      <glyph glyph-name="uni0401" unicode="&#x0401;" d="M387 758L387 876L510 876L510 758L387 758M188 758L188 876L311 876L311 758L188 758M90 0L90 700L609 700L609 590L213 590L213 408L564 408L564 298L213 298L213 110L614 110L614 0L90 0Z"  horiz-adv-x="670" vert-adv-y="1000"  />

      
      <glyph glyph-name="uni0402" unicode="&#x0402;" d="M564-16Q510-16 458 2L481 110Q508 101 539 101Q598 101 636 130Q674 159 674 223Q674 280 637.50 311Q601 342 537 342Q434 342 358 274L358 0L235 0L235 589L38 589L38 700L615 700L615 589L358 589L358 393Q452 460 564 460Q670 460 735.50 398Q801 336 801 226Q801 109 736 46.50Q671-16 564-16Z"  horiz-adv-x="874" vert-adv-y="1000"  />

      
      <glyph glyph-name="uni0403" unicode="&#x0403;" d="M233 758L339 922L449 873L327 758L233 758M90 0L90 700L561 700L561 589L212 589L212 0L90 0Z"  horiz-adv-x="594" vert-adv-y="1000"  />

      
      <glyph glyph-name="uni0404" unicode="&#x0404;" d="M414-12Q262-12 160.50 92.50Q59 197 59 350Q59 501 161 606.50Q263 712 419 712Q507 712 568.50 683.50Q630 655 687 602L617 518Q524 601 418 601Q332 601 269.50 546Q207 491 191 405L505 405L505 300L190 300Q204 212 267.50 155Q331 98 418 98Q480 98 526.50 120.50Q573 143 623 189L702 108Q645 48 577 18Q509-12 414-12Z"  horiz-adv-x="736" vert-adv-y="1000"  />

      
      <glyph glyph-name="uni0405" unicode="&#x0405;" d="M335-10Q168-10 43 102L117 190Q222 99 338 99Q395 99 428.50 123.50Q462 148 462 189Q462 228 430 251.50Q398 275 304 297Q182 326 126.50 370.50Q71 415 71 507Q71 597 138 653.50Q205 710 310 710Q454 710 564 622L498 529Q401 601 308 601Q255 601 224.50 577Q194 553 194 516Q194 475 227.50 452.50Q261 430 360 406Q476 378 530.50 331Q585 284 585 199Q585 102 516 46Q447-10 335-10Z"  horiz-adv-x="640" vert-adv-y="1000"  />

      
      <glyph glyph-name="uni0406" unicode="&#x0406;" d="M97 0L97 700L220 700L220 0L97 0Z"  horiz-adv-x="317" vert-adv-y="1000"  />

      
      <glyph glyph-name="uni0407" unicode="&#x0407;" d="M197 758L197 876L320 876L320 758L197 758M-2 758L-2 876L121 876L121 758L-2 758M97 0L97 700L220 700L220 0L97 0Z"  horiz-adv-x="317" vert-adv-y="1000"  />

      
      <glyph glyph-name="uni0408" unicode="&#x0408;" d="M245-10Q104-10 21 103L102 186Q167 104 243 104Q294 104 324 138.50Q354 173 354 241L354 700L480 700L480 238Q480 117 415 52Q353-10 245-10Z"  horiz-adv-x="559" vert-adv-y="1000"  />

      
      <glyph glyph-name="uni0409" unicode="&#x0409;" d="M90-8Q47-8 5 3L17 104Q35 98 57 98Q81 98 98.50 105.50Q116 113 135.50 141Q155 169 166.50 217.50Q178 266 186 353Q194 440 194 562L194 700L670 700L670 448L831 448Q951 448 1022 390.50Q1093 333 1093 229Q1093 123 1022 61.50Q951 0 830 0L547 0L547 589L309 589L309 526Q309 365 295 258Q281 151 251 94Q221 37 183 14.50Q145-8 90-8M670 110L828 110Q897 110 934 140.50Q971 171 971 230Q971 284 933 312.50Q895 341 825 341L670 341L670 110Z"  horiz-adv-x="1132" vert-adv-y="1000"  />

      
      <glyph glyph-name="uni040A" unicode="&#x040A;" d="M90 0L90 700L212 700L212 426L546 426L546 700L669 700L669 426L844 426Q958 426 1025 371Q1092 316 1092 217Q1092 115 1024.50 57.50Q957 0 838 0L546 0L546 321L212 321L212 0L90 0M669 110L833 110Q969 110 969 221Q969 323 831 323L669 323L669 110Z"  horiz-adv-x="1131" vert-adv-y="1000"  />

      
      <glyph glyph-name="uni040B" unicode="&#x040B;" d="M236 0L236 589L38 589L38 700L615 700L615 589L358 589L358 389Q454 456 564 456Q670 456 735.50 399.50Q801 343 801 241L801 0L679 0L679 196Q679 263 643 300.50Q607 338 542 338Q435 338 358 268L358 0L236 0Z"  horiz-adv-x="874" vert-adv-y="1000"  />

      
      <glyph glyph-name="uni040C" unicode="&#x040C;" d="M306 758L412 922L522 873L400 758L306 758M90 0L90 700L213 700L213 348L546 700L697 700L406 399L710 0L561 0L322 315L213 203L213 0L90 0Z"  horiz-adv-x="725" vert-adv-y="1000"  />

      
      <glyph glyph-name="uni040E" unicode="&#x040E;" d="M485 792.50Q485 792.50 464 773.75Q443 755 380 755Q317 755 275 792.50Q233 830 222 895L297 909Q316 841 380 841Q442 841 463 909L537 895Q527 830 485 792.50M211-11Q139-11 74 24L121 116Q160 94 207 94Q270 94 317 170L25 700L163 700L381 293L573 700L706 700L433 153Q352-11 211-11Z"  horiz-adv-x="732" vert-adv-y="1000"  />

      
      <glyph glyph-name="uni040F" unicode="&#x040F;" d="M316-150L316 0L89 0L89 700L211 700L211 111L538 111L538 700L660 700L660 0L435 0L435-150L316-150Z"  horiz-adv-x="751" vert-adv-y="1000"  />

      
      <glyph glyph-name="uni0410" unicode="&#x0410;" d="M30 0L338 705L452 705L760 0L630 0L559 169L228 169L156 0L30 0M273 278L514 278L393 558L273 278Z"  horiz-adv-x="790" vert-adv-y="1000"  />

      
      <glyph glyph-name="uni0411" unicode="&#x0411;" d="M90 0L90 700L612 700L612 589L212 589L212 428L407 428Q524 428 592.50 372Q661 316 661 216Q661 112 592 56Q523 0 401 0L90 0M212 110L374 110Q458 110 498 134.50Q538 159 538 221Q538 324 396 324L212 324L212 110Z"  horiz-adv-x="710" vert-adv-y="1000"  />

      
      <glyph glyph-name="uni0412" unicode="&#x0412;" d="M90 0L90 700L404 700Q525 700 587 638Q634 591 634 520Q634 416 534 364Q673 317 673 192Q673 100 603 50Q533 0 414 0L90 0M211 405L379 405Q440 405 475.50 429.50Q511 454 511 502Q511 544 479 567.50Q447 591 388 591L211 591L211 405M211 109L415 109Q479 109 514.50 134Q550 159 550 207Q550 301 406 301L211 301L211 109Z"  horiz-adv-x="722" vert-adv-y="1000"  />

      
      <glyph glyph-name="uni0413" unicode="&#x0413;" d="M90 0L90 700L561 700L561 589L212 589L212 0L90 0Z"  horiz-adv-x="594" vert-adv-y="1000"  />

      
      <glyph glyph-name="uni0414" unicode="&#x0414;" d="M10-150L10 110L78 110Q167 286 167 601L167 700L655 700L655 110L742 110L725-150L623-150L623 0L130 0L118-150L10-150M209 110L532 110L532 589L285 589L285 509Q285 264 209 110Z"  horiz-adv-x="762" vert-adv-y="1000"  />

      
      <glyph glyph-name="uni0415" unicode="&#x0415;" d="M90 0L90 700L609 700L609 590L213 590L213 408L564 408L564 298L213 298L213 110L614 110L614 0L90 0Z"  horiz-adv-x="670" vert-adv-y="1000"  />

      
      <glyph glyph-name="uni0416" unicode="&#x0416;" d="M604 0L482 0L482 186L372 311L163 0L15 0L291 402L29 700L176 700L482 336L482 700L604 700L604 336L910 700L1057 700L794 402L1071 0L923 0L714 311L604 186L604 0Z"  horiz-adv-x="1086" vert-adv-y="1000"  />

      
      <glyph glyph-name="uni0417" unicode="&#x0417;" d="M328 712Q436 712 505 659Q574 606 574 524Q574 411 455 361Q518 342 555 300Q592 258 592 193Q592 104 521 46Q450-12 335-12Q236-12 164.50 16.50Q93 45 32 103L99 188Q197 95 332 95Q390 95 429.50 123.50Q469 152 469 200Q469 252 425 277Q381 302 309 302L230 302L230 404L308 404Q376 404 414 430.50Q452 457 452 506Q452 550 415.50 577Q379 604 320 604Q205 604 124 526L58 606Q169 712 328 712Z"  horiz-adv-x="646" vert-adv-y="1000"  />

      
      <glyph glyph-name="uni0418" unicode="&#x0418;" d="M90 0L90 700L211 700L211 189L565 700L680 700L680 0L559 0L559 510L206 0L90 0Z"  horiz-adv-x="771" vert-adv-y="1000"  />

      
      <glyph glyph-name="uni0419" unicode="&#x0419;" d="M494 792.50Q494 792.50 473 773.75Q452 755 389 755Q326 755 284 792.50Q242 830 231 895L306 909Q325 841 389 841Q451 841 472 909L546 895Q536 830 494 792.50M90 0L90 700L211 700L211 189L565 700L680 700L680 0L559 0L559 510L206 0L90 0Z"  horiz-adv-x="771" vert-adv-y="1000"  />

      
      <glyph glyph-name="uni041A" unicode="&#x041A;" d="M90 0L90 700L213 700L213 348L546 700L697 700L406 399L710 0L561 0L322 315L213 203L213 0L90 0Z"  horiz-adv-x="725" vert-adv-y="1000"  />

      
      <glyph glyph-name="uni041B" unicode="&#x041B;" d="M90-8Q47-8 5 3L17 104Q35 98 57 98Q81 98 98.50 105.50Q116 113 135.50 141Q155 169 166.50 217.50Q178 266 186 353Q194 440 194 562L194 700L674 700L674 0L551 0L551 589L309 589L309 526Q309 363 295 255.50Q281 148 251 91.50Q221 35 183.50 13.50Q146-8 90-8Z"  horiz-adv-x="765" vert-adv-y="1000"  />

      
      <glyph glyph-name="uni041C" unicode="&#x041C;" d="M90 0L90 700L221 700L434 369L647 700L778 700L778 0L655 0L655 502L434 172L430 172L211 500L211 0L90 0Z"  horiz-adv-x="868" vert-adv-y="1000"  />

      
      <glyph glyph-name="uni041D" unicode="&#x041D;" d="M90 0L90 700L213 700L213 409L547 409L547 700L670 700L670 0L547 0L547 295L213 295L213 0L90 0Z"  horiz-adv-x="760" vert-adv-y="1000"  />

      
      <glyph glyph-name="uni041E" unicode="&#x041E;" d="M687 94Q687 94 635 41Q583-12 424-12Q265-12 162 93Q59 198 59 350Q59 500 163 606Q267 712 426 712Q585 712 688 607Q791 502 791 350Q791 200 687 94M255.50 173.50Q255.50 173.50 289.25 137.25Q323 101 426 101Q529 101 595.50 173Q662 245 662 350Q662 454 594.50 526.50Q527 599 424 599Q321 599 254.50 527Q188 455 188 350Q188 246 255.50 173.50Z"  horiz-adv-x="850" vert-adv-y="1000"  />

      
      <glyph glyph-name="uni041F" unicode="&#x041F;" d="M90 0L90 700L661 700L661 0L538 0L538 589L213 589L213 0L90 0Z"  horiz-adv-x="751" vert-adv-y="1000"  />

      
      <glyph glyph-name="uni0420" unicode="&#x0420;" d="M90 0L90 700L366 700Q488 700 560 636Q632 572 632 464Q632 351 552.50 288Q473 225 352 225L213 225L213 0L90 0M213 336L356 336Q425 336 466 371Q507 406 507 463Q507 523 466.50 555.50Q426 588 356 588L213 588L213 336Z"  horiz-adv-x="668" vert-adv-y="1000"  />

      
      <glyph glyph-name="uni0421" unicode="&#x0421;" d="M415-12Q263-12 161 92.50Q59 197 59 350Q59 502 161 607Q263 712 420 712Q511 712 574.50 684Q638 656 694 603L615 512Q521 599 419 599Q319 599 253.50 527Q188 455 188 350Q188 246 254 173.50Q320 101 419 101Q479 101 525 123.50Q571 146 620 192L699 112Q640 50 574 19Q508-12 415-12Z"  horiz-adv-x="738" vert-adv-y="1000"  />

      
      <glyph glyph-name="uni0422" unicode="&#x0422;" d="M262 0L262 586L40 586L40 700L608 700L608 586L386 586L386 0L262 0Z"  horiz-adv-x="648" vert-adv-y="1000"  />

      
      <glyph glyph-name="uni0423" unicode="&#x0423;" d="M211-11Q139-11 74 24L121 116Q160 94 207 94Q270 94 317 170L25 700L163 700L381 293L573 700L706 700L433 153Q352-11 211-11Z"  horiz-adv-x="732" vert-adv-y="1000"  />

      
      <glyph glyph-name="uni0424" unicode="&#x0424;" d="M397-27L397 49Q235 49 141 134Q47 219 47 356Q47 492 141 575.50Q235 659 397 659L397 725L519 725L519 659Q681 659 775 575Q869 491 869 355Q869 219 775.50 134Q682 49 519 49L519-27L397-27M397 158L397 549Q293 549 233 497Q173 445 173 354Q173 262 233 210Q293 158 397 158M519 158Q624 158 683.50 209.50Q743 261 743 354Q743 445 683 497Q623 549 519 549L519 158Z"  horiz-adv-x="917" vert-adv-y="1000"  />

      
      <glyph glyph-name="uni0425" unicode="&#x0425;" d="M37 0L292 356L47 700L192 700L366 449L541 700L682 700L438 358L692 0L547 0L363 265L178 0L37 0Z"  horiz-adv-x="729" vert-adv-y="1000"  />

      
      <glyph glyph-name="uni0426" unicode="&#x0426;" d="M631-150L631 0L90 0L90 700L213 700L213 111L541 111L541 700L663 700L663 111L750 111L733-150L631-150Z"  horiz-adv-x="770" vert-adv-y="1000"  />

      
      <glyph glyph-name="uni0427" unicode="&#x0427;" d="M501 0L501 277Q388 218 302 218Q196 218 133.50 274.50Q71 331 71 441L71 700L194 700L194 472Q194 405 227 368.50Q260 332 324 332Q419 332 501 387L501 700L624 700L624 0L501 0Z"  horiz-adv-x="714" vert-adv-y="1000"  />

      
      <glyph glyph-name="uni0428" unicode="&#x0428;" d="M90 0L90 700L212 700L212 110L487 110L487 700L610 700L610 110L885 110L885 700L1007 700L1007 0L90 0Z"  horiz-adv-x="1097" vert-adv-y="1000"  />

      
      <glyph glyph-name="uni0429" unicode="&#x0429;" d="M976-150L976 0L90 0L90 700L213 700L213 111L488 111L488 700L610 700L610 111L885 111L885 700L1008 700L1008 111L1094 111L1077-150L976-150Z"  horiz-adv-x="1114" vert-adv-y="1000"  />

      
      <glyph glyph-name="uni042A" unicode="&#x042A;" d="M210 0L210 589L35 589L35 700L332 700L332 448L493 448Q613 448 684.50 390.50Q756 333 756 229Q756 123 685 61.50Q614 0 492 0L210 0M332 110L490 110Q559 110 596.50 140.50Q634 171 634 230Q634 284 596 312.50Q558 341 487 341L332 341L332 110Z"  horiz-adv-x="795" vert-adv-y="1000"  />

      
      <glyph glyph-name="uni042B" unicode="&#x042B;" d="M90 0L90 700L212 700L212 448L373 448Q493 448 564.50 390.50Q636 333 636 229Q636 123 565 61.50Q494 0 372 0L90 0M212 110L370 110Q439 110 476.50 140.50Q514 171 514 230Q514 284 476 312.50Q438 341 368 341L212 341L212 110M719 0L719 700L841 700L841 0L719 0Z"  horiz-adv-x="931" vert-adv-y="1000"  />

      
      <glyph glyph-name="uni042C" unicode="&#x042C;" d="M90 0L90 700L212 700L212 448L373 448Q493 448 564.50 390.50Q636 333 636 229Q636 123 565 61.50Q494 0 372 0L90 0M212 110L370 110Q439 110 476.50 140.50Q514 171 514 230Q514 284 476 312.50Q438 341 368 341L212 341L212 110Z"  horiz-adv-x="675" vert-adv-y="1000"  />

      
      <glyph glyph-name="uni042D" unicode="&#x042D;" d="M320-12Q225-12 157 18Q89 48 32 108L111 189Q161 143 207.50 120.50Q254 98 316 98Q404 98 467 155Q530 212 544 300L230 300L230 405L543 405Q527 491 464.50 546Q402 601 316 601Q210 601 117 518L47 602Q103 655 165.50 683.50Q228 712 315 712Q471 712 573 606.50Q675 501 675 350Q675 197 573.50 92.50Q472-12 320-12Z"  horiz-adv-x="734" vert-adv-y="1000"  />

      
      <glyph glyph-name="uni042E" unicode="&#x042E;" d="M661-12Q527-12 436 75Q345 162 328 297L213 297L213 0L90 0L90 700L213 700L213 407L329 407Q347 539 438.50 625.50Q530 712 663 712Q810 712 904.50 608Q999 504 999 350Q999 197 904 92.50Q809-12 661-12M511.50 171.50Q511.50 171.50 541.25 135.25Q571 99 663 99Q755 99 814 170.50Q873 242 873 350Q873 456 813 528Q753 600 661 600Q569 600 510.50 529Q452 458 452 350Q452 244 511.50 171.50Z"  horiz-adv-x="1058" vert-adv-y="1000"  />

      
      <glyph glyph-name="uni042F" unicode="&#x042F;" d="M36 0L227 263Q150 284 105 338.50Q60 393 60 477Q60 579 130 639.50Q200 700 321 700L632 700L632 0L510 0L510 242L355 242L181 0L36 0M329 349L510 349L510 589L331 589Q262 589 223 557.50Q184 526 184 469Q184 414 223.50 381.50Q263 349 329 349Z"  horiz-adv-x="722" vert-adv-y="1000"  />

      
      <glyph glyph-name="uni0430" unicode="&#x0430;" d="M519 0L399 0L399 65Q335-11 228-11Q149-11 94.50 32.50Q40 76 40 154Q40 239 99 283Q158 327 254 327Q331 327 400 305L400 315Q400 370 366.50 399Q333 428 270 428Q198 428 119 395L86 492Q184 536 287 536Q402 536 460.50 478Q519 420 519 313L519 0M402 191L402 221Q348 242 281 242Q224 242 192 220Q160 198 160 158Q160 122 189 101Q218 80 262 80Q323 80 362.50 111Q402 142 402 191Z"  horiz-adv-x="587" vert-adv-y="1000"  />

      
      <glyph glyph-name="uni0431" unicode="&#x0431;" d="M334 93Q401 93 443.50 139.50Q486 186 486 255Q486 323 441.50 370.50Q397 418 332 418Q266 418 223.50 371Q181 324 181 255Q181 187 225 140Q269 93 334 93M332-12Q204-12 132 69Q60 150 60 296Q60 343 62.50 378.50Q65 414 72 455.50Q79 497 93.50 528Q108 559 130.50 587.50Q153 616 188.50 635.50Q224 655 271 665L559 725L579 628L291 565Q219 550 188 511.50Q157 473 152 415Q176 455 227.50 484.50Q279 514 355 514Q458 514 532.50 439.50Q607 365 607 257Q607 146 528.50 67Q450-12 332-12Z"  horiz-adv-x="654" vert-adv-y="1000"  />

      
      <glyph glyph-name="uni0432" unicode="&#x0432;" d="M76 0L76 528L347 528Q426 528 473.50 492.50Q521 457 521 396Q521 313 436 275Q545 244 545 143Q545 76 492.50 38Q440 0 350 0L76 0M195 96L332 96Q375 96 398.50 114.50Q422 133 422 164Q422 194 397.50 211Q373 228 326 228L195 228L195 96M195 310L319 310Q356 310 377 328Q398 346 398 375Q398 402 379 418.50Q360 435 321 435L195 435L195 310Z"  horiz-adv-x="590" vert-adv-y="1000"  />

      
      <glyph glyph-name="uni0433" unicode="&#x0433;" d="M76 0L76 528L450 528L450 424L197 424L197 0L76 0Z"  horiz-adv-x="470" vert-adv-y="1000"  />

      
      <glyph glyph-name="uni0434" unicode="&#x0434;" d="M15-127L15 104L72 104Q131 222 131 463L131 528L540 528L540 104L615 104L599-127L498-127L498 0L128 0L116-127L15-127M196 104L419 104L419 424L245 424L245 354Q245 207 196 104Z"  horiz-adv-x="640" vert-adv-y="1000"  />

      
      <glyph glyph-name="uni0435" unicode="&#x0435;" d="M318-12Q202-12 124.50 65Q47 142 47 264Q47 379 120 459Q193 539 305 539Q425 539 491.50 457.50Q558 376 558 255Q558 233 556 221L168 221Q178 158 219 122.50Q260 87 320 87Q398 87 463 150L534 87Q452-12 318-12M167 301L438 301Q432 362 397 401Q362 440 304 440Q249 440 212 401.50Q175 363 167 301Z"  horiz-adv-x="604" vert-adv-y="1000"  />

      
      <glyph glyph-name="uni0436" unicode="&#x0436;" d="M9 0L216 306L17 528L158 528L377 269L377 528L498 528L498 269L718 528L859 528L660 306L866 0L730 0L579 225L498 133L498 0L377 0L377 133L296 225L145 0L9 0Z"  horiz-adv-x="875" vert-adv-y="1000"  />

      
      <glyph glyph-name="uni0437" unicode="&#x0437;" d="M256-12Q120-12 25 69L82 149Q156 86 248 86Q290 86 319 106.50Q348 127 348 159Q348 189 320 207Q292 225 241 225L176 225L176 312L241 312Q283 312 308.50 331.50Q334 351 334 381Q334 408 309.50 424.50Q285 441 247 441Q159 441 97 387L43 463Q130 539 258 539Q345 539 400 499Q455 459 455 397Q455 313 372 277Q468 243 468 149Q468 81 409 34.50Q350-12 256-12Z"  horiz-adv-x="518" vert-adv-y="1000"  />

      
      <glyph glyph-name="uni0438" unicode="&#x0438;" d="M76 0L76 528L194 528L194 174Q360 410 444 528L558 528L558 0L441 0L441 352L190 0L76 0Z"  horiz-adv-x="634" vert-adv-y="1000"  />

      
      <glyph glyph-name="uni0439" unicode="&#x0439;" d="M422.50 626.50Q422.50 626.50 401.75 607.75Q381 589 318 589Q255 589 213 626.50Q171 664 161 728L235 742Q256 674 318 674Q380 674 401 742L474 728Q464 664 422.50 626.50M76 0L76 528L194 528L194 174Q360 410 444 528L558 528L558 0L441 0L441 352L190 0L76 0Z"  horiz-adv-x="634" vert-adv-y="1000"  />

      
      <glyph glyph-name="uni043A" unicode="&#x043A;" d="M76 0L76 528L196 528L196 275L426 528L568 528L363 306L585 0L442 0L282 218L196 127L196 0L76 0Z"  horiz-adv-x="593" vert-adv-y="1000"  />

      
      <glyph glyph-name="uni043B" unicode="&#x043B;" d="M72-6Q43-6 1 1L10 100Q26 96 45 96Q66 96 79.50 102Q93 108 107.50 132.50Q122 157 130 202Q138 247 143 328.50Q148 410 148 528L547 528L547 0L426 0L426 424L261 424Q261 311 252 232Q243 153 228.50 107Q214 61 188.50 35.50Q163 10 137 2Q111-6 72-6Z"  horiz-adv-x="623" vert-adv-y="1000"  />

      
      <glyph glyph-name="uni043C" unicode="&#x043C;" d="M76 0L76 528L196 528L361 283L527 528L647 528L647 0L525 0L525 352L359 115L194 350L194 0L76 0Z"  horiz-adv-x="723" vert-adv-y="1000"  />

      
      <glyph glyph-name="uni043D" unicode="&#x043D;" d="M76 0L76 528L197 528L197 314L430 314L430 528L551 528L551 0L430 0L430 213L197 213L197 0L76 0Z"  horiz-adv-x="627" vert-adv-y="1000"  />

      
      <glyph glyph-name="uni043E" unicode="&#x043E;" d="M327-12Q207-12 127 68Q47 148 47 263Q47 378 128 458.50Q209 539 329 539Q449 539 529.50 459Q610 379 610 263Q610 149 529 68.50Q448-12 327-12M329 93Q401 93 445 142Q489 191 489 263Q489 334 443 383.50Q397 433 327 433Q256 433 212 384Q168 335 168 263Q168 193 214 143Q260 93 329 93Z"  horiz-adv-x="657" vert-adv-y="1000"  />

      
      <glyph glyph-name="uni043F" unicode="&#x043F;" d="M76 0L76 528L547 528L547 0L426 0L426 424L197 424L197 0L76 0Z"  horiz-adv-x="623" vert-adv-y="1000"  />

      
      <glyph glyph-name="uni0440" unicode="&#x0440;" d="M76-160L76 528L197 528L197 440Q267 539 376 539Q476 539 549 464.50Q622 390 622 263Q622 138 549 63.50Q476-11 376-11Q267-11 197 82L197-160L76-160M348 94Q412 94 455.50 141Q499 188 499 265Q499 340 455 387Q411 434 348 434Q285 434 239.50 386Q194 338 194 263Q194 189 239.50 141.50Q285 94 348 94Z"  horiz-adv-x="670" vert-adv-y="1000"  />

      
      <glyph glyph-name="uni0441" unicode="&#x0441;" d="M320-12Q203-12 125 67.50Q47 147 47 261L47 263Q47 377 125.50 458Q204 539 321 539Q449 539 532 448L457 367Q394 433 320 433Q255 433 211.50 384Q168 335 168 265L168 263Q168 191 212.50 142Q257 93 326 93Q399 93 463 159L536 87Q493 39 442.50 13.50Q392-12 320-12Z"  horiz-adv-x="566" vert-adv-y="1000"  />

      
      <glyph glyph-name="uni0442" unicode="&#x0442;" d="M189 0L189 424L19 424L19 528L481 528L481 424L311 424L311 0L189 0Z"  horiz-adv-x="501" vert-adv-y="1000"  />

      
      <glyph glyph-name="uni0443" unicode="&#x0443;" d="M184-163Q118-163 59-131L100-41Q137-61 171-61Q197-61 214-47.50Q231-34 246 0L26 528L155 528L305 136L442 528L568 528L358-15Q326-96 287-129.50Q248-163 184-163Z"  horiz-adv-x="596" vert-adv-y="1000"  />

      
      <glyph glyph-name="uni0444" unicode="&#x0444;" d="M384-160L384 38Q336-8 263-8Q167-8 108 64.50Q49 137 49 264Q49 390 108.50 463Q168 536 264 536Q333 536 384 483L384 700L505 700L505 483Q556 536 625 536Q721 536 780.50 462.50Q840 389 840 263Q840 136 781 64Q722-8 626-8Q553-8 505 38L505-160L384-160M299 93Q344 93 384 128L384 396Q344 433 299 433Q237 433 204 387Q171 341 171 262Q171 182 203.50 137.50Q236 93 299 93M591 93Q654 93 686 137.50Q718 182 718 263Q718 341 685.50 387Q653 433 591 433Q549 433 505 396L505 128Q545 93 591 93Z"  horiz-adv-x="889" vert-adv-y="1000"  />

      
      <glyph glyph-name="uni0445" unicode="&#x0445;" d="M30 0L224 268L37 528L169 528L291 354L413 528L542 528L355 271L550 0L418 0L288 185L159 0L30 0Z"  horiz-adv-x="580" vert-adv-y="1000"  />

      
      <glyph glyph-name="uni0446" unicode="&#x0446;" d="M503-127L503 0L76 0L76 528L196 528L196 104L424 104L424 528L544 528L544 104L620 104L604-127L503-127Z"  horiz-adv-x="645" vert-adv-y="1000"  />

      
      <glyph glyph-name="uni0447" unicode="&#x0447;" d="M397 0L397 197Q319 157 240 157Q159 157 109.50 200.50Q60 244 60 323L60 528L181 528L181 352Q181 314 205 287Q229 260 268 260Q336 260 397 295L397 528L518 528L518 0L397 0Z"  horiz-adv-x="594" vert-adv-y="1000"  />

      
      <glyph glyph-name="uni0448" unicode="&#x0448;" d="M76 0L76 528L197 528L197 104L392 104L392 528L512 528L512 104L707 104L707 528L828 528L828 0L76 0Z"  horiz-adv-x="904" vert-adv-y="1000"  />

      
      <glyph glyph-name="uni0449" unicode="&#x0449;" d="M787-127L787 0L76 0L76 528L197 528L197 104L392 104L392 528L512 528L512 104L707 104L707 528L828 528L828 104L903 104L888-127L787-127Z"  horiz-adv-x="928" vert-adv-y="1000"  />

      
      <glyph glyph-name="uni044A" unicode="&#x044A;" d="M163 0L163 425L17 425L17 528L283 528L283 343L405 343Q499 343 557 301Q615 259 615 176Q615 94 561 47Q507 0 413 0L163 0M283 98L398 98Q493 98 493 176Q493 211 468 230Q443 249 396 249L283 249L283 98Z"  horiz-adv-x="645" vert-adv-y="1000"  />

      
      <glyph glyph-name="uni044B" unicode="&#x044B;" d="M76 0L76 528L197 528L197 343L308 343Q402 343 460 301Q518 259 518 176Q518 94 464 47Q410 0 317 0L76 0M197 98L301 98Q347 98 372 118Q397 138 397 176Q397 211 371.50 230Q346 249 299 249L197 249L197 98M598 0L598 528L719 528L719 0L598 0Z"  horiz-adv-x="795" vert-adv-y="1000"  />

      
      <glyph glyph-name="uni044C" unicode="&#x044C;" d="M76 0L76 528L197 528L197 343L318 343Q412 343 470 301Q528 259 528 176Q528 94 474 47Q420 0 327 0L76 0M197 98L311 98Q357 98 382 118Q407 138 407 176Q407 211 381.50 230Q356 249 309 249L197 249L197 98Z"  horiz-adv-x="558" vert-adv-y="1000"  />

      
      <glyph glyph-name="uni044D" unicode="&#x044D;" d="M246-12Q113-12 27 86L99 157Q165 89 240 89Q299 89 342 126.50Q385 164 396 221L189 221L189 308L395 308Q384 363 342.50 399.50Q301 436 245 436Q164 436 102 374L37 449Q122 538 246 538Q363 538 441 457Q519 376 519 262Q519 148 440.50 68Q362-12 246-12Z"  horiz-adv-x="566" vert-adv-y="1000"  />

      
      <glyph glyph-name="uni044E" unicode="&#x044E;" d="M545-12Q441-12 371.50 51.50Q302 115 287 214L196 214L196 0L76 0L76 528L196 528L196 314L287 314Q303 411 373.50 474.50Q444 538 547 538Q664 538 737 459Q810 380 810 263Q810 148 736 68Q662-12 545-12M547 93Q615 93 652.50 141.50Q690 190 690 263Q690 335 650.50 384Q611 433 545 433Q477 433 440 385Q403 337 403 263Q403 191 442 142Q481 93 547 93Z"  horiz-adv-x="857" vert-adv-y="1000"  />

      
      <glyph glyph-name="uni044F" unicode="&#x044F;" d="M28 0L174 198Q118 215 84.50 255.50Q51 296 51 356Q51 434 106 481Q161 528 259 528L524 528L524 0L403 0L403 178L295 178L170 0L28 0M276 269L403 269L403 430L275 430Q227 430 199.50 408.50Q172 387 172 350Q172 312 200.50 290.50Q229 269 276 269Z"  horiz-adv-x="600" vert-adv-y="1000"  />

      
      <glyph glyph-name="uni0451" unicode="&#x0451;" d="M339 595L339 713L462 713L462 595L339 595M140 595L140 713L263 713L263 595L140 595M318-12Q202-12 124.50 65Q47 142 47 264Q47 379 120 459Q193 539 305 539Q425 539 491.50 457.50Q558 376 558 255Q558 233 556 221L168 221Q178 158 219 122.50Q260 87 320 87Q398 87 463 150L534 87Q452-12 318-12M167 301L438 301Q432 362 397 401Q362 440 304 440Q249 440 212 401.50Q175 363 167 301Z"  horiz-adv-x="604" vert-adv-y="1000"  />

      
      <glyph glyph-name="uni0452" unicode="&#x0452;" d="M357-9Q306-9 252 9L273 104Q292 96 316 96Q367 96 399 131.50Q431 167 431 227L431 272Q431 333 401 367Q371 401 317 401Q263 401 229.50 365.50Q196 330 196 269L196 0L75 0L75 559L3 559L3 647L75 647L75 730L196 730L196 647L376 647L376 559L196 559L196 417Q262 511 362 511Q451 511 501.50 456Q552 401 552 308L552 193Q552 100 499 45.50Q446-9 357-9Z"  horiz-adv-x="620" vert-adv-y="1000"  />

      
      <glyph glyph-name="uni0453" unicode="&#x0453;" d="M180 595L286 759L396 710L274 595L180 595M76 0L76 528L450 528L450 424L197 424L197 0L76 0Z"  horiz-adv-x="470" vert-adv-y="1000"  />

      
      <glyph glyph-name="uni0454" unicode="&#x0454;" d="M320-12Q204-12 125.50 68Q47 148 47 262Q47 376 125 457Q203 538 320 538Q444 538 529 449L464 374Q402 436 321 436Q265 436 223 399.50Q181 363 170 308L377 308L377 221L169 221Q181 163 224 126Q267 89 326 89Q401 89 467 157L539 86Q453-12 320-12Z"  horiz-adv-x="574" vert-adv-y="1000"  />

      
      <glyph glyph-name="uni0455" unicode="&#x0455;" d="M257-10Q133-10 33 69L87 151Q173 86 260 86Q299 86 320.50 101.50Q342 117 342 145Q342 159 334.50 169.50Q327 180 308 189Q289 198 276 202Q263 206 233 215L224 218Q196 226 176.50 233.50Q157 241 133 254Q109 267 94 282.50Q79 298 69 322Q59 346 59 376Q59 449 112.50 493Q166 537 247 537Q350 537 441 477L393 391Q311 441 244 441Q209 441 189.50 426Q170 411 170 386Q170 369 187.50 355Q205 341 222.50 334.50Q240 328 279 315Q281 314 284 313Q287 312 289 312Q324 301 348 290.50Q372 280 398.50 262Q425 244 439 217.50Q453 191 453 156Q453 76 398 33Q343-10 257-10Z"  horiz-adv-x="500" vert-adv-y="1000"  />

      
      <glyph glyph-name="uni0456" unicode="&#x0456;" d="M78 609L78 724L208 724L208 609L78 609M83 0L83 528L204 528L204 0L83 0Z"  horiz-adv-x="286" vert-adv-y="1000"  />

      
      <glyph glyph-name="uni0457" unicode="&#x0457;" d="M182 595L182 713L305 713L305 595L182 595M-17 595L-17 713L106 713L106 595L-17 595M83 0L83 528L204 528L204 0L83 0Z"  horiz-adv-x="286" vert-adv-y="1000"  />

      
      <glyph glyph-name="uni0458" unicode="&#x0458;" d="M78 609L78 724L208 724L208 609L78 609M50-163Q24-163-8-158L-8-61Q10-64 26-64Q83-64 83 0L83 528L204 528L204-7Q204-163 50-163Z"  horiz-adv-x="286" vert-adv-y="1000"  />

      
      <glyph glyph-name="uni0459" unicode="&#x0459;" d="M72-6Q38-6 1 1L10 100Q26 96 45 96Q72 96 88 108.50Q104 121 119.50 163Q135 205 141.50 294.50Q148 384 148 528L547 528L547 343L668 343Q762 343 820 301Q878 259 878 176Q878 94 824 47Q770 0 677 0L426 0L426 424L261 424Q261 311 252 232Q243 153 228.50 107Q214 61 188.50 35.50Q163 10 137 2Q111-6 72-6M547 98L661 98Q707 98 732 118Q757 138 757 176Q757 211 731.50 230Q706 249 659 249L547 249L547 98Z"  horiz-adv-x="908" vert-adv-y="1000"  />

      
      <glyph glyph-name="uni045A" unicode="&#x045A;" d="M75 0L75 528L196 528L196 337L429 337L429 528L550 528L550 337L672 337Q766 337 823.50 295.50Q881 254 881 171Q881 90 827.50 45Q774 0 680 0L429 0L429 242L196 242L196 0L75 0M550 98L665 98Q760 98 760 172Q760 243 663 243L550 243L550 98Z"  horiz-adv-x="911" vert-adv-y="1000"  />

      
      <glyph glyph-name="uni045B" unicode="&#x045B;" d="M75 0L75 559L3 559L3 647L75 647L75 730L196 730L196 647L376 647L376 559L196 559L196 418Q259 511 361 511Q449 511 499.50 456Q550 401 550 308L550 0L429 0L429 272Q429 334 399.50 367.50Q370 401 316 401Q262 401 229 366Q196 331 196 270L196 0L75 0Z"  horiz-adv-x="620" vert-adv-y="1000"  />

      
      <glyph glyph-name="uni045C" unicode="&#x045C;" d="M241 595L347 759L457 710L335 595L241 595M76 0L76 528L196 528L196 275L426 528L568 528L363 306L585 0L442 0L282 218L196 127L196 0L76 0Z"  horiz-adv-x="593" vert-adv-y="1000"  />

      
      <glyph glyph-name="uni045E" unicode="&#x045E;" d="M408.50 626.50Q408.50 626.50 387.75 607.75Q367 589 304 589Q241 589 199 626.50Q157 664 147 728L221 742Q242 674 304 674Q366 674 387 742L460 728Q450 664 408.50 626.50M184-163Q118-163 59-131L100-41Q137-61 171-61Q197-61 214-47.50Q231-34 246 0L26 528L155 528L305 136L442 528L568 528L358-15Q326-96 287-129.50Q248-163 184-163Z"  horiz-adv-x="596" vert-adv-y="1000"  />

      
      <glyph glyph-name="uni045F" unicode="&#x045F;" d="M256-127L256 0L76 0L76 528L196 528L196 104L427 104L427 528L547 528L547 0L371 0L371-127L256-127Z"  horiz-adv-x="623" vert-adv-y="1000"  />

      
      <glyph glyph-name="uni0490" unicode="&#x0490;" d="M90 0L90 700L441 700L441 850L544 850L561 589L212 589L212 0L90 0Z"  horiz-adv-x="594" vert-adv-y="1000"  />

      
      <glyph glyph-name="uni0491" unicode="&#x0491;" d="M76 0L76 528L334 528L334 655L435 655L450 424L197 424L197 0L76 0Z"  horiz-adv-x="470" vert-adv-y="1000"  />

      
      <glyph glyph-name="uni2013" unicode="&#x2013;" d="M56 249L56 364L472 364L472 249L56 249Z"  horiz-adv-x="528" vert-adv-y="1000"  />

      
      <glyph glyph-name="uni2014" unicode="&#x2014;" d="M56 249L56 364L842 364L842 249L56 249Z"  horiz-adv-x="898" vert-adv-y="1000"  />

      
      <glyph glyph-name="uni2018" unicode="&#x2018;" d="M63 422L63 539Q63 620 101 659.50Q139 699 217 705L230 653Q144 638 144 571Q144 569 144.50 565.50Q145 562 145 560L196 560L196 422L63 422Z"  horiz-adv-x="269" vert-adv-y="1000"  />

      
      <glyph glyph-name="uni2019" unicode="&#x2019;" d="M52 417L39 469Q125 484 125 552Q125 554 124.50 557.50Q124 561 124 563L73 563L73 700L206 700L206 583Q206 502 168 462.50Q130 423 52 417Z"  horiz-adv-x="269" vert-adv-y="1000"  />

      
      <glyph glyph-name="uni201A" unicode="&#x201A;" d="M47-145L34-94Q126-76 119 0L68 0L68 137L201 137L201 21Q201-60 163-99.50Q125-139 47-145Z"  horiz-adv-x="269" vert-adv-y="1000"  />

      
      <glyph glyph-name="uni201C" unicode="&#x201C;" d="M295 422L295 539Q295 620 333 659.50Q371 699 449 705L462 653Q376 638 376 569L376 560L428 560L428 422L295 422M63 422L63 539Q63 620 101 659.50Q139 699 217 705L230 653Q144 638 144 571Q144 569 144.50 565.50Q145 562 145 560L196 560L196 422L63 422Z"  horiz-adv-x="501" vert-adv-y="1000"  />

      
      <glyph glyph-name="uni201D" unicode="&#x201D;" d="M284 417L271 469Q357 484 357 552Q357 554 356.50 557.50Q356 561 356 563L305 563L305 700L438 700L438 583Q438 502 400 462.50Q362 423 284 417M52 417L39 469Q125 484 125 552Q125 554 124.50 557.50Q124 561 124 563L73 563L73 700L206 700L206 583Q206 502 168 462.50Q130 423 52 417Z"  horiz-adv-x="501" vert-adv-y="1000"  />

      
      <glyph glyph-name="uni201E" unicode="&#x201E;" d="M279-145L266-94Q352-77 352-11Q352-9 351.50-5.50Q351-2 351 0L300 0L300 137L433 137L433 21Q433-60 395-99.50Q357-139 279-145M47-145L34-94Q120-77 120-11Q120-9 119.50-5.50Q119-2 119 0L68 0L68 137L201 137L201 21Q201-60 163-99.50Q125-139 47-145Z"  horiz-adv-x="501" vert-adv-y="1000"  />

      
      <glyph glyph-name="uni2020" unicode="&#x2020;" d="M169 238L178 513L56 504L56 575L177 566L165 700L245 700L233 566L354 575L354 504L232 513L241 238L169 238Z"  horiz-adv-x="410" vert-adv-y="1000"  />

      
      <glyph glyph-name="uni2021" unicode="&#x2021;" d="M175 0L187 134L66 125L66 196L187 187L179 350L187 513L66 504L66 575L187 566L175 700L255 700L243 566L364 575L364 504L243 513L251 350L243 187L364 196L364 125L243 134L255 0L175 0Z"  horiz-adv-x="430" vert-adv-y="1000"  />

      
      <glyph glyph-name="uni2022" unicode="&#x2022;" d="M245 211Q187 211 145.50 252Q104 293 104 353Q104 411 146 452Q188 493 245 493Q303 493 345 451.50Q387 410 387 351Q387 293 345.50 252Q304 211 245 211Z"  horiz-adv-x="491" vert-adv-y="1000"  />

      
      <glyph glyph-name="uni2026" unicode="&#x2026;" d="M594 0L594 134L724 134L724 0L594 0M331 0L331 134L461 134L461 0L331 0M68 0L68 134L198 134L198 0L68 0Z"  horiz-adv-x="792" vert-adv-y="1000"  />

      
      </font>
</defs>
</svg>
